<?xml version="1.0" encoding="UTF-8" standalone="yes"?>
<!DOCTYPE svg PUBLIC "-//W3C//DTD SVG 1.1//EN" "http://www.w3.org/Graphics/SVG/1.1/DTD/svg11.dtd">

<svg width="500" height="500" viewBox="0 0 500 500" xmlns="http://www.w3.org/2000/svg" xmlns:xlink="http://www.w3.org/1999/xlink" version="1.1" baseProfile="full">
    <g transform="scale(1,-1) translate(0,-500)">
        <path d="M 767.367400 8.470000 L 770.767200 8.509400 L 774.140600 8.588400 L 777.487800 8.706900 L 780.808800 8.864800 L 784.103500 9.062300 L 787.371900 9.299200 L 790.614100 9.575600 L 793.830100 9.891500 L 797.019700 10.246900 L 800.183200 10.641800 L 803.320300 11.076200 L 806.431200 11.550000 L 809.515900 12.063400 L 812.574300 12.616200 L 815.606400 13.208500 L 818.612300 13.840400 L 821.591900 14.511700 L 824.545200 15.222400 L 827.472400 15.972700 L 830.373200 16.762500 L 833.247800 17.591700 L 836.096100 18.460500 L 838.918200 19.368700 L 841.714000 20.316400 L 844.483600 21.303600 L 847.226900 22.330300 L 849.944000 23.396500 L 852.634800 24.502200 L 855.299300 25.647300 L 857.937600 26.832000 L 860.549600 28.056100 L 863.135400 29.319700 L 865.694900 30.622800 L 868.228200 31.965400 L 870.735200 33.347500 L 873.215900 34.769100 L 875.670400 36.230200 L 878.098600 37.730700 L 880.500600 39.270700 L 882.876300 40.850300 L 885.225800 42.469300 L 887.549000 44.127800 L 889.845900 45.825800 L 892.116600 47.563300 L 894.361000 49.340200 L 896.579200 51.156700 L 898.771100 53.012600 L 900.936800 54.908100 L 903.076200 56.843000 L 905.189400 58.817400 L 907.276300 60.831300 L 909.336900 62.884700 L 911.371300 64.977600 L 913.379400 67.109900 L 915.361300 69.281800 L 917.316900 71.493100 L 919.246200 73.743900 L 921.149300 76.034200 L 923.026200 78.364000 L 924.876800 80.733300 L 926.701100 83.142100 L 928.499200 85.590400 L 930.271000 88.078100 L 931.147000 89.336800 L 932.233700 90.906000 L 934.361900 94.053200 L 936.429900 97.212300 L 938.437600 100.383200 L 940.385100 103.565900 L 942.272300 106.760400 L 944.099300 109.966800 L 945.866000 113.184900 L 947.572500 116.415000 L 949.218700 119.656800 L 950.804700 122.910400 L 952.330400 126.175900 L 953.435200 128.632800 L 954.152900 130.274400 L 954.855500 131.919000 L 955.543100 133.566500 L 956.215600 135.217000 L 956.873000 136.870400 L 957.515400 138.526800 L 958.142700 140.186200 L 958.754900 141.848500 L 959.352100 143.513700 L 959.934200 145.181900 L 960.501300 146.853100 L 961.053300 148.527200 L 961.590200 150.204300 L 962.112100 151.884400 L 962.618900 153.567400 L 963.110700 155.253300 L 963.587400 156.942200 L 964.049000 158.634100 L 964.495600 160.328900 L 964.927100 162.026700 L 965.343500 163.727400 L 965.744900 165.431100 L 966.131200 167.137800 L 966.502500 168.847400 L 966.858700 170.560000 L 967.199800 172.275500 L 967.525900 173.994000 L 967.836900 175.715400 L 968.132800 177.439800 L 968.413700 179.167100 L 968.679500 180.897400 L 968.930300 182.630700 L 969.166000 184.366900 L 969.386600 186.106100 L 969.592200 187.848200 L 969.782700 189.593300 L 969.958200 191.341300 L 970.118600 193.092300 L 970.263900 194.846300 L 970.330900 195.724300 L 849.027700 195.724300 L 848.907100 194.565500 L 848.645700 192.268000 L 848.357500 189.997500 L 848.042400 187.754100 L 847.700500 185.537700 L 847.331700 183.348300 L 846.936000 181.185900 L 846.513400 179.050600 L 846.064000 176.942300 L 845.587700 174.861100 L 845.084600 172.806800 L 844.554600 170.779600 L 843.997700 168.779500 L 843.413900 166.806300 L 842.803300 164.860200 L 842.165800 162.941100 L 841.501500 161.049100 L 840.810200 159.184000 L 840.092200 157.346000 L 839.347200 155.535100 L 838.575400 153.751100 L 837.776700 151.994200 L 836.951100 150.264400 L 836.098700 148.561500 L 835.219400 146.885700 L 834.313300 145.236900 L 833.380200 143.615100 L 832.420300 142.020400 L 831.433600 140.452700 L 830.419900 138.912000 L 829.379400 137.398400 L 828.312100 135.911800 L 827.768300 135.178600 L 827.215300 134.454500 L 826.073900 133.040500 L 824.885200 131.672200 L 823.649300 130.349400 L 822.366200 129.072300 L 821.035800 127.840800 L 819.658300 126.654900 L 818.233500 125.514600 L 816.761500 124.419900 L 815.242300 123.370800 L 813.675800 122.367300 L 812.062200 121.409500 L 810.401300 120.497200 L 808.693200 119.630600 L 806.937900 118.809600 L 805.135300 118.034200 L 803.285500 117.304400 L 801.388500 116.620200 L 799.444300 115.981600 L 797.452900 115.388700 L 795.414200 114.841300 L 793.328400 114.339600 L 791.195300 113.883500 L 789.014900 113.473000 L 786.787400 113.108100 L 784.512600 112.788800 L 782.190700 112.515100 L 779.821500 112.287100 L 777.405000 112.104600 L 774.941400 111.967800 L 772.430500 111.876600 L 769.872400 111.830900 L 768.575700 111.825200 L 767.659600 111.828800 L 765.841200 111.857600 L 764.041100 111.915000 L 762.259300 112.001100 L 760.495800 112.116000 L 758.750700 112.259600 L 757.023800 112.431900 L 755.315300 112.633000 L 753.625100 112.862700 L 751.953200 113.121200 L 750.299700 113.408400 L 748.664400 113.724300 L 747.047500 114.068900 L 745.448900 114.442200 L 743.868600 114.844300 L 742.306700 115.275100 L 740.763000 115.734600 L 739.237700 116.222800 L 737.730700 116.739700 L 736.242000 117.285400 L 734.771600 117.859800 L 733.319600 118.462800 L 731.885800 119.094700 L 730.470400 119.755200 L 729.073300 120.444400 L 727.694500 121.162400 L 726.334100 121.909100 L 724.991900 122.684500 L 723.668100 123.488600 L 722.362600 124.321500 L 721.075400 125.183000 L 719.806600 126.073300 L 718.556000 126.992300 L 717.323800 127.940000 L 716.109900 128.916400 L 714.914300 129.921600 L 713.737000 130.955500 L 712.578000 132.018100 L 711.437400 133.109400 L 710.315100 134.229400 L 709.211100 135.378200 L 708.125400 136.555600 L 707.058000 137.761800 L 706.009000 138.996700 L 704.978300 140.260300 L 703.965900 141.552700 L 702.971800 142.873700 L 701.996000 144.223500 L 701.038600 145.602000 L 700.099400 147.009200 L 699.178600 148.445200 L 698.276100 149.909800 L 697.391900 151.403200 L 696.526100 152.925300 L 695.678500 154.476100 L 694.849300 156.055600 L 694.038400 157.663800 L 693.245800 159.300800 L 692.471600 160.966500 L 691.715600 162.660900 L 690.978000 164.384000 L 690.258700 166.135900 L 689.557700 167.916400 L 688.875000 169.725700 L 688.540500 170.641100 L 688.178600 171.632600 L 687.472000 173.645500 L 686.788100 175.698000 L 686.127000 177.790300 L 685.488700 179.922200 L 684.873200 182.093800 L 684.280500 184.305200 L 683.710500 186.556200 L 683.163400 188.847000 L 682.639100 191.177400 L 682.137600 193.547500 L 681.658900 195.957400 L 681.202900 198.406900 L 680.769800 200.896100 L 680.359500 203.425100 L 679.971900 205.993700 L 679.607200 208.602000 L 679.265200 211.250100 L 678.946100 213.937800 L 678.649700 216.665200 L 678.376200 219.432300 L 678.125400 222.239200 L 677.897400 225.085700 L 677.692300 227.971900 L 677.509900 230.897900 L 677.350300 233.863500 L 677.153700 238.386400 L 676.971300 244.555800 L 676.880200 250.884100 L 676.868800 254.107700 L 676.880200 257.492300 L 676.971300 264.134800 L 677.153700 270.608300 L 677.427300 276.912900 L 677.692300 281.530500 L 677.897400 284.556100 L 678.125400 287.539400 L 678.376200 290.480600 L 678.649700 293.379500 L 678.946100 296.236100 L 679.265200 299.050600 L 679.607200 301.822800 L 679.971900 304.552700 L 680.359500 307.240500 L 680.769800 309.885900 L 681.202900 312.489200 L 681.658900 315.050200 L 682.137600 317.569000 L 682.639100 320.045600 L 683.163400 322.479900 L 683.710500 324.872000 L 684.280500 327.221900 L 684.873200 329.529500 L 685.488700 331.794900 L 686.127000 334.018100 L 686.788100 336.199000 L 687.472000 338.337700 L 688.178600 340.434200 L 688.540500 341.466600 L 688.888100 342.429100 L 689.597000 344.331500 L 690.324400 346.203700 L 691.070400 348.045700 L 691.834900 349.857500 L 692.617900 351.639100 L 693.419500 353.390600 L 694.239500 355.111800 L 695.078100 356.802800 L 695.935200 358.463600 L 696.810900 360.094300 L 697.705000 361.694700 L 698.617700 363.264900 L 699.548900 364.805000 L 700.498600 366.314800 L 701.466800 367.794400 L 702.453600 369.243900 L 703.458900 370.663100 L 704.482700 372.052200 L 705.525000 373.411100 L 706.585900 374.739700 L 707.665200 376.038200 L 708.763100 377.306500 L 709.879500 378.544500 L 711.014500 379.752400 L 712.167900 380.930100 L 713.339900 382.077600 L 714.530400 383.194800 L 715.739400 384.281900 L 716.967000 385.338800 L 718.213100 386.365500 L 719.477700 387.362000 L 720.760800 388.328300 L 722.062400 389.264400 L 723.382600 390.170300 L 724.721300 391.046000 L 726.078500 391.891500 L 727.454200 392.706800 L 728.848400 393.492000 L 730.261200 394.246900 L 731.692500 394.971600 L 733.142300 395.666100 L 734.610600 396.330500 L 736.097500 396.964600 L 737.602900 397.568500 L 739.126800 398.142300 L 740.669200 398.685800 L 742.230200 399.199200 L 743.809600 399.682300 L 745.407600 400.135300 L 747.024100 400.558000 L 748.659200 400.950600 L 750.312700 401.313000 L 751.984800 401.645100 L 753.675400 401.947100 L 755.384500 402.218900 L 757.112200 402.460400 L 758.858400 402.671800 L 760.623000 402.853000 L 762.406300 403.004000 L 764.208000 403.124800 L 766.028200 403.215400 L 767.867000 403.275700 L 769.724300 403.305900 L 770.659900 403.309700 L 771.970200 403.302700 L 774.558400 403.247000 L 777.103500 403.135500 L 779.605400 402.968300 L 782.064200 402.745300 L 784.479800 402.466500 L 786.852200 402.132000 L 789.181500 401.741800 L 791.467700 401.295800 L 793.710700 400.794100 L 795.910600 400.236600 L 798.067300 399.623400 L 800.180800 398.954400 L 802.251200 398.229700 L 804.278500 397.449200 L 806.262600 396.613000 L 808.203600 395.721000 L 810.101400 394.773300 L 811.956000 393.769800 L 813.767500 392.710600 L 815.535900 391.595700 L 817.261100 390.425000 L 818.943100 389.198500 L 820.582000 387.916300 L 822.177800 386.578300 L 823.730400 385.184600 L 825.239900 383.735200 L 826.706200 382.230000 L 828.129300 380.669000 L 829.509300 379.052400 L 830.846200 377.379900 L 832.139900 375.651700 L 832.770500 374.766700 L 833.197900 374.103200 L 834.037300 372.768700 L 834.856300 371.424000 L 835.655000 370.069100 L 836.433300 368.704100 L 837.191300 367.329000 L 837.928900 365.943800 L 838.646200 364.548400 L 839.343100 363.142800 L 840.019700 361.727200 L 840.675900 360.301400 L 841.311800 358.865400 L 841.927300 357.419400 L 842.522400 355.963200 L 843.097200 354.496800 L 843.651700 353.020400 L 844.185700 351.533700 L 844.699500 350.037000 L 845.192900 348.530100 L 845.665900 347.013100 L 846.118600 345.485900 L 846.550900 343.948600 L 846.962800 342.401200 L 847.354500 340.843600 L 847.725700 339.275900 L 848.076600 337.698100 L 848.407200 336.110100 L 848.717400 334.512000 L 849.007200 332.903800 L 849.276700 331.285400 L 849.525800 329.656900 L 849.754600 328.018200 L 849.861400 327.195100 L 971.581500 327.195100 L 971.258000 330.329100 L 970.546000 336.507800 L 969.955100 341.063700 L 969.534100 344.063800 L 969.091400 347.034100 L 968.627000 349.974600 L 968.141000 352.885300 L 967.633200 355.766200 L 967.103800 358.617400 L 966.552700 361.438800 L 965.980000 364.230400 L 965.385500 366.992300 L 964.769400 369.724400 L 964.131600 372.426700 L 963.472200 375.099200 L 962.791000 377.741900 L 962.088200 380.354900 L 961.363700 382.938100 L 960.617500 385.491500 L 959.849700 388.015200 L 959.060100 390.509100 L 958.248900 392.973200 L 957.416000 395.407500 L 956.561500 397.812100 L 955.685200 400.186900 L 954.787300 402.531900 L 953.867700 404.847100 L 952.926500 407.132500 L 951.963500 409.388200 L 950.978900 411.614100 L 949.972600 413.810300 L 948.944600 415.976600 L 947.894900 418.113200 L 946.823600 420.220000 L 945.730600 422.297100 L 944.615900 424.344300 L 943.479600 426.361800 L 942.321500 428.349500 L 941.141800 430.307500 L 939.940400 432.235600 L 938.717300 434.134000 L 937.472600 436.002600 L 936.206200 437.841500 L 934.918100 439.650500 L 933.608300 441.429800 L 932.276800 443.179300 L 930.923700 444.899100 L 929.548900 446.589100 L 928.152400 448.249300 L 926.734200 449.879700 L 925.294400 451.480300 L 923.832900 453.051200 L 922.349700 454.592300 L 920.844800 456.103600 L 919.318300 457.585100 L 917.770000 459.036900 L 916.200100 460.458900 L 914.608500 461.851100 L 912.995300 463.213600 L 911.360400 464.546300 L 909.703700 465.849200 L 908.025500 467.122300 L 907.178200 467.747700 L 906.326300 468.366900 L 904.611200 469.590800 L 902.880900 470.795300 L 901.135400 471.980400 L 899.374800 473.146100 L 897.599000 474.292300 L 895.808100 475.419100 L 894.002000 476.526400 L 892.180700 477.614300 L 890.344300 478.682800 L 888.492700 479.731900 L 886.625900 480.761600 L 884.744000 481.771800 L 882.846900 482.762600 L 880.934600 483.734000 L 879.007200 484.685900 L 877.064600 485.618400 L 875.106900 486.531500 L 873.133900 487.425100 L 871.145900 488.299400 L 869.142600 489.154200 L 867.124200 489.989600 L 865.090700 490.805500 L 863.041900 491.602000 L 860.978000 492.379100 L 858.899000 493.136800 L 856.804700 493.875000 L 854.695400 494.593800 L 852.570800 495.293200 L 850.431100 495.973200 L 848.276200 496.633700 L 846.106200 497.274800 L 843.921000 497.896500 L 841.720600 498.498700 L 839.505100 499.081600 L 837.274400 499.644900 L 835.028500 500.188900 L 832.767500 500.713500 L 830.491300 501.218600 L 828.200000 501.704200 L 825.893500 502.170500 L 823.571800 502.617300 L 821.234900 503.044700 L 818.882900 503.452700 L 816.515800 503.841300 L 814.133400 504.210400 L 811.735900 504.560100 L 809.323300 504.890300 L 806.895500 505.201200 L 804.452500 505.492600 L 801.994300 505.764600 L 799.521000 506.017100 L 795.782600 506.359500 L 790.745000 506.748100 L 785.646700 507.058900 L 780.487800 507.292000 L 775.268200 507.447500 L 769.988000 507.525200 L 767.325100 507.534900 L 765.758100 507.530800 L 762.639800 507.497800 L 759.542800 507.431900 L 756.466900 507.333100 L 753.412200 507.201300 L 750.378600 507.036600 L 747.366200 506.839000 L 744.375000 506.608400 L 741.404900 506.344800 L 738.456000 506.048400 L 735.528300 505.718900 L 732.621800 505.356600 L 729.736400 504.961300 L 726.872200 504.533000 L 724.029100 504.071800 L 721.207300 503.577700 L 718.406600 503.050600 L 715.627000 502.490600 L 712.868600 501.897700 L 710.131400 501.271800 L 707.415400 500.612900 L 704.720500 499.921200 L 702.046800 499.196400 L 699.394300 498.438800 L 696.762900 497.648200 L 694.152700 496.824600 L 691.563700 495.968100 L 688.995900 495.078700 L 686.449200 494.156300 L 683.923600 493.201000 L 681.419300 492.212700 L 678.936100 491.191500 L 676.474100 490.137400 L 674.033200 489.050300 L 671.613600 487.930300 L 669.215000 486.777300 L 666.837700 485.591400 L 664.481500 484.372500 L 662.146500 483.120700 L 659.832700 481.836000 L 657.540000 480.518300 L 655.268500 479.167700 L 653.018200 477.784100 L 650.789000 476.367600 L 648.581000 474.918200 L 646.394200 473.435800 L 644.228500 471.920400 L 642.084000 470.372200 L 639.960700 468.790900 L 637.858500 467.176800 L 635.777500 465.529700 L 635.496100 465.300200 L 633.951900 466.837200 L 632.313400 468.420500 L 630.664000 469.967200 L 629.003700 471.477500 L 627.332500 472.951200 L 625.650400 474.388300 L 623.957400 475.788900 L 622.253500 477.153000 L 620.538800 478.480600 L 618.813100 479.771600 L 617.076500 481.026000 L 615.329000 482.244000 L 613.570600 483.425400 L 611.801300 484.570200 L 610.021100 485.678500 L 608.230000 486.750300 L 606.428000 487.785500 L 604.615100 488.784200 L 602.791300 489.746400 L 600.956600 490.672000 L 599.111000 491.561100 L 597.254500 492.413700 L 595.387100 493.229700 L 594.449300 493.624000 L 593.509900 494.010700 L 591.630000 494.765800 L 589.748300 495.496600 L 587.865000 496.203000 L 585.980000 496.885000 L 584.093300 497.542700 L 582.204900 498.176000 L 580.314900 498.785000 L 578.423100 499.369600 L 576.529700 499.929800 L 574.634700 500.465700 L 572.737900 500.977200 L 570.839500 501.464400 L 568.939400 501.927200 L 567.037600 502.365700 L 565.134100 502.779800 L 563.229000 503.169500 L 561.322200 503.534900 L 559.413700 503.875900 L 557.503500 504.192600 L 555.591700 504.484900 L 553.678200 504.752800 L 551.763000 504.996400 L 549.846100 505.215600 L 547.927500 505.410500 L 546.007300 505.581000 L 544.085400 505.727200 L 542.161800 505.849000 L 540.236500 505.946400 L 538.309600 506.019500 L 536.381000 506.068200 L 534.450700 506.092500 L 533.484900 506.095600 L 532.038000 506.090700 L 529.156900 506.051500 L 526.292400 505.973200 L 523.444800 505.855800 L 520.613900 505.699200 L 517.799800 505.503500 L 515.002500 505.268600 L 512.221900 504.994600 L 509.458100 504.681400 L 506.711100 504.329000 L 503.980900 503.937600 L 501.267400 503.506900 L 498.570700 503.037200 L 495.890800 502.528200 L 493.227600 501.980200 L 490.581200 501.393000 L 487.951600 500.766600 L 485.338700 500.101100 L 482.742600 499.396400 L 480.163300 498.652600 L 477.600800 497.869700 L 475.055000 497.047600 L 472.526000 496.186300 L 470.013800 495.285900 L 467.518300 494.346400 L 465.039600 493.367700 L 462.577700 492.349800 L 460.132500 491.292800 L 457.704200 490.196700 L 455.292600 489.061400 L 452.897700 487.887000 L 450.519600 486.673400 L 449.336900 486.051900 L 448.226200 485.420000 L 446.021700 484.122900 L 443.839800 482.781500 L 441.680600 481.395700 L 439.544000 479.965500 L 437.430100 478.490900 L 435.338800 476.972000 L 433.270200 475.408700 L 431.224200 473.801000 L 429.200800 472.149000 L 427.200100 470.452600 L 425.222000 468.711800 L 423.266500 466.926700 L 421.333700 465.097200 L 419.423500 463.223300 L 417.536000 461.305000 L 415.671100 459.342400 L 413.828900 457.335500 L 412.009300 455.284100 L 410.212300 453.188400 L 408.438000 451.048300 L 406.686300 448.863900 L 404.957300 446.635100 L 403.250800 444.361900 L 401.567100 442.044400 L 399.906000 439.682500 L 398.267500 437.276200 L 396.651600 434.825500 L 395.058400 432.330500 L 393.487900 429.791100 L 391.939900 427.207400 L 390.414700 424.579300 L 389.660500 423.248600 L 389.228000 424.358900 L 388.344200 426.560800 L 387.435300 428.737400 L 386.501100 430.888800 L 385.541900 433.014900 L 384.557400 435.115900 L 383.547800 437.191600 L 382.513100 439.242000 L 381.453200 441.267300 L 380.368100 443.267300 L 379.257900 445.242100 L 378.122600 447.191600 L 376.962000 449.116000 L 375.776400 451.015100 L 374.565500 452.888900 L 373.329500 454.737600 L 372.068400 456.561000 L 370.782100 458.359200 L 369.470600 460.132100 L 368.134000 461.879900 L 366.772200 463.602400 L 365.385300 465.299600 L 363.973200 466.971700 L 362.536000 468.618500 L 361.073600 470.240100 L 359.586000 471.836400 L 358.073300 473.407600 L 356.535500 474.953500 L 354.972500 476.474100 L 353.384300 477.969600 L 351.771000 479.439800 L 350.132500 480.884800 L 349.303800 481.597800 L 348.265700 482.357400 L 346.159300 483.840600 L 344.012700 485.276100 L 341.825800 486.663600 L 339.598700 488.003400 L 337.331300 489.295200 L 335.023700 490.539300 L 332.675800 491.735400 L 330.287600 492.883800 L 327.859300 493.984300 L 325.390600 495.036900 L 322.881800 496.041700 L 320.332600 496.998600 L 317.743300 497.907700 L 315.113600 498.769000 L 312.443800 499.582400 L 309.733600 500.347900 L 306.983300 501.065600 L 304.192600 501.735500 L 301.361800 502.357500 L 298.490600 502.931700 L 295.579300 503.458000 L 292.627600 503.936500 L 289.635800 504.367100 L 286.603700 504.749900 L 283.531300 505.084800 L 280.418700 505.371900 L 277.265800 505.611100 L 274.072700 505.802500 L 270.839300 505.946100 L 267.565700 506.041800 L 264.251800 506.089600 L 262.579800 506.095600 L 260.814000 506.088600 L 257.313100 506.032900 L 253.853400 505.921600 L 250.434700 505.754600 L 247.057100 505.531900 L 243.720600 505.253500 L 240.425200 504.919400 L 237.170800 504.529700 L 233.957600 504.084300 L 230.785400 503.583200 L 227.654400 503.026400 L 224.564400 502.414000 L 221.515500 501.745800 L 218.507700 501.022000 L 215.541000 500.242600 L 212.615400 499.407400 L 209.730800 498.516600 L 206.887400 497.570100 L 204.085000 496.567900 L 201.323700 495.510000 L 198.603500 494.396500 L 195.924400 493.227300 L 193.286400 492.002400 L 190.689500 490.721800 L 188.133700 489.385600 L 185.618900 487.993700 L 183.145300 486.546100 L 180.712700 485.042800 L 178.321200 483.483900 L 175.970800 481.869200 L 173.661500 480.198900 L 171.393300 478.472900 L 170.274600 477.589100 L 169.643400 477.082700 L 168.377200 476.037900 L 167.106000 474.950400 L 165.829800 473.820400 L 164.548500 472.647700 L 163.262200 471.432300 L 161.970800 470.174400 L 160.674500 468.873800 L 159.373100 467.530600 L 158.066700 466.144800 L 156.755200 464.716300 L 155.438700 463.245200 L 154.117200 461.731500 L 152.790600 460.175200 L 151.459100 458.576200 L 150.122400 456.934600 L 148.780800 455.250400 L 147.434100 453.523600 L 146.082400 451.754100 L 144.725700 449.942000 L 143.363900 448.087300 L 141.997100 446.189900 L 140.625300 444.249900 L 139.248400 442.267300 L 137.173700 439.213400 L 134.389800 434.992400 L 131.585700 430.600900 L 128.761600 426.038900 L 127.341900 423.694000 L 127.341900 494.514800 L 8.418400 494.514800 L 8.418400 9.904300 L 132.493800 9.904300 L 132.493800 302.095900 L 132.503500 304.554400 L 132.554100 308.170400 L 132.612000 310.533100 L 132.689100 312.857700 L 132.785500 315.143900 L 132.901300 317.391800 L 133.036300 319.601500 L 133.190600 321.772900 L 133.364100 323.906000 L 133.557000 326.000800 L 133.769100 328.057400 L 134.000600 330.075700 L 134.251300 332.055700 L 134.521300 333.997400 L 134.810600 335.900900 L 135.119200 337.766000 L 135.447000 339.592900 L 135.794200 341.381500 L 136.160600 343.131900 L 136.546300 344.843900 L 136.951400 346.517700 L 137.375700 348.153200 L 137.819200 349.750500 L 138.282100 351.309400 L 138.764300 352.830100 L 139.265700 354.312500 L 139.786400 355.756600 L 140.326400 357.162400 L 140.885700 358.530000 L 141.464300 359.859300 L 142.062200 361.150300 L 142.368400 361.781400 L 142.652200 362.329100 L 143.232500 363.411500 L 143.829500 364.476800 L 144.443300 365.524800 L 145.073900 366.555700 L 145.721200 367.569400 L 146.385300 368.566000 L 147.066200 369.545300 L 147.763900 370.507500 L 148.478300 371.452500 L 149.209500 372.380300 L 149.957500 373.290900 L 150.722200 374.184300 L 151.503700 375.060600 L 152.302000 375.919700 L 153.117000 376.761500 L 153.948900 377.586300 L 154.797400 378.393800 L 155.662800 379.184100 L 156.544900 379.957300 L 157.443800 380.713300 L 158.359500 381.452100 L 159.292000 382.173700 L 160.241200 382.878200 L 161.207200 383.565400 L 162.189900 384.235500 L 163.189400 384.888400 L 164.205700 385.524100 L 165.238800 386.142600 L 166.288600 386.744000 L 167.355300 387.328200 L 168.438600 387.895200 L 169.538800 388.445000 L 170.655700 388.977600 L 171.789400 389.493000 L 172.939900 389.991300 L 174.107100 390.472400 L 175.291100 390.936300 L 176.491900 391.383000 L 177.709400 391.812500 L 178.943700 392.224900 L 180.194800 392.620100 L 181.462700 392.998100 L 182.747300 393.358900 L 184.048700 393.702500 L 185.366800 394.029000 L 186.701800 394.338200 L 188.053500 394.630300 L 189.422000 394.905200 L 190.807200 395.162900 L 192.209200 395.403500 L 193.628000 395.626800 L 195.063600 395.833000 L 196.515900 396.022000 L 197.985000 396.193800 L 199.470900 396.348500 L 200.973500 396.485900 L 202.493000 396.606200 L 204.029100 396.709300 L 205.582100 396.795200 L 207.151800 396.863900 L 208.738300 396.915400 L 210.341600 396.949800 L 211.961600 396.967000 L 212.777900 396.969100 L 214.179400 396.960500 L 216.939000 396.891800 L 219.640800 396.754400 L 222.284600 396.548200 L 224.870700 396.273300 L 227.398800 395.929700 L 229.869100 395.517300 L 232.281600 395.036200 L 234.636200 394.486400 L 236.932900 393.867900 L 239.171800 393.180600 L 241.352800 392.424600 L 243.475900 391.599900 L 245.541200 390.706500 L 247.548700 389.744300 L 249.498200 388.713400 L 251.390000 387.613800 L 253.223800 386.445500 L 254.999800 385.208400 L 256.718000 383.902600 L 258.378300 382.528100 L 259.980700 381.084800 L 261.525300 379.572900 L 263.012000 377.992200 L 264.440800 376.342700 L 265.811800 374.624600 L 267.125000 372.837700 L 268.380200 370.982100 L 269.577700 369.057800 L 270.717200 367.064700 L 271.798900 365.003000 L 272.822800 362.872500 L 273.313000 361.781400 L 273.579200 361.163200 L 274.099100 359.892200 L 274.602200 358.575100 L 275.088600 357.211900 L 275.558100 355.802600 L 276.010900 354.347200 L 276.447000 352.845600 L 276.866200 351.298000 L 277.268700 349.704200 L 277.654500 348.064400 L 278.023400 346.378400 L 278.375600 344.646400 L 278.711000 342.868200 L 279.029600 341.043900 L 279.331500 339.173500 L 279.616600 337.257000 L 279.884900 335.294400 L 280.136500 333.285700 L 280.371300 331.230900 L 280.589300 329.129900 L 280.790600 326.982900 L 280.975000 324.789800 L 281.142700 322.550500 L 281.293700 320.265200 L 281.488600 316.750700 L 281.689900 311.903300 L 281.824000 306.871500 L 281.891100 301.655300 L 281.899500 298.978000 L 281.899500 9.904300 L 405.116300 9.904300 L 405.116300 298.978000 L 405.118700 299.991900 L 405.138000 302.005800 L 405.176500 304.001500 L 405.234400 305.978900 L 405.311500 307.938000 L 405.408000 309.878800 L 405.523700 311.801400 L 405.658700 313.705700 L 405.813000 315.591800 L 405.986500 317.459600 L 406.179400 319.309100 L 406.391600 321.140300 L 406.623000 322.953300 L 406.873700 324.748000 L 407.143700 326.524400 L 407.433000 328.282600 L 407.741600 330.022500 L 408.069500 331.744100 L 408.416600 333.447500 L 408.783000 335.132600 L 409.168800 336.799400 L 409.573800 338.448000 L 409.998100 340.078300 L 410.441600 341.690300 L 410.904500 343.284000 L 411.386700 344.859500 L 411.888100 346.416700 L 412.408800 347.955600 L 412.948800 349.476300 L 413.508100 350.978700 L 414.086700 352.462900 L 414.684600 353.928700 L 414.990800 354.654800 L 415.294600 355.334200 L 415.913600 356.676900 L 416.547900 357.998400 L 417.197600 359.298500 L 417.862500 360.577400 L 418.542800 361.834900 L 419.238400 363.071100 L 419.949200 364.286000 L 420.675400 365.479500 L 421.416900 366.651800 L 422.173600 367.802700 L 422.945700 368.932400 L 423.733100 370.040700 L 424.535800 371.127700 L 425.353800 372.193400 L 426.187000 373.237700 L 427.035600 374.260800 L 427.899500 375.262500 L 428.778700 376.243000 L 429.673200 377.202100 L 430.583000 378.139900 L 431.508100 379.056400 L 432.448500 379.951600 L 433.404300 380.825400 L 434.375300 381.678000 L 435.361600 382.509200 L 436.363200 383.319100 L 437.380100 384.107800 L 438.412400 384.875000 L 439.459900 385.621000 L 440.522700 386.345700 L 441.600900 387.049000 L 442.694300 387.731100 L 443.803100 388.391800 L 444.927100 389.031200 L 446.066500 389.649300 L 447.221100 390.246100 L 448.391100 390.821600 L 449.576300 391.375700 L 450.776900 391.908600 L 451.992800 392.420100 L 453.223900 392.910300 L 454.470400 393.379200 L 455.732200 393.826800 L 457.009300 394.253100 L 458.301600 394.658100 L 459.609300 395.041700 L 460.932300 395.404000 L 462.270600 395.745100 L 463.624200 396.064800 L 464.993100 396.363200 L 466.377300 396.640200 L 467.776800 396.896000 L 469.191600 397.130500 L 470.621700 397.343600 L 472.067100 397.535400 L 473.527800 397.705900 L 475.003900 397.855100 L 476.495200 397.983000 L 478.001800 398.089600 L 479.523700 398.174800 L 481.061000 398.238800 L 482.613500 398.281400 L 484.181400 398.302700 L 484.971000 398.305400 L 486.332800 398.297100 L 489.016100 398.231000 L 491.645700 398.098800 L 494.221700 397.900400 L 496.744000 397.636000 L 499.212600 397.305400 L 501.627500 396.908700 L 503.988800 396.445900 L 506.296500 395.916900 L 508.550400 395.321900 L 510.750700 394.660700 L 512.897400 393.933400 L 514.990300 393.140100 L 517.029600 392.280500 L 519.015300 391.354900 L 520.947200 390.363200 L 522.825500 389.305300 L 524.650200 388.181300 L 526.421200 386.991300 L 528.138500 385.735000 L 529.802100 384.412700 L 531.412100 383.024300 L 532.968400 381.569700 L 534.471000 380.049100 L 535.920000 378.462300 L 537.315300 376.809400 L 538.657000 375.090300 L 539.944900 373.305200 L 541.179300 371.454000 L 542.359900 369.536600 L 543.486900 367.553100 L 544.560200 365.503500 L 545.076700 364.453900 L 545.343000 363.894800 L 545.862900 362.762100 L 546.366000 361.610300 L 546.852300 360.439300 L 547.321900 359.249200 L 547.774700 358.040000 L 548.210700 356.811600 L 548.630000 355.564100 L 549.032500 354.297500 L 549.418200 353.011700 L 549.787200 351.706800 L 550.139400 350.382700 L 550.474800 349.039500 L 550.793400 347.677200 L 551.095300 346.295700 L 551.380400 344.895100 L 551.648700 343.475300 L 551.900300 342.036400 L 552.135100 340.578400 L 552.353100 339.101200 L 552.554300 337.604900 L 552.738800 336.089400 L 552.906500 334.554800 L 553.057400 333.001100 L 553.191600 331.428200 L 553.309000 329.836200 L 553.409600 328.225100 L 553.493500 326.594800 L 553.560600 324.945400 L 553.610900 323.276800 L 553.644400 321.589100 L 553.661200 319.882300 L 553.663300 319.021700 L 553.663300 282.363800 L 553.330700 277.017100 L 552.996100 269.738600 L 552.773000 262.354500 L 552.661500 254.864900 L 552.647600 251.080400 L 552.660200 247.725100 L 552.761100 241.073300 L 552.963000 234.500200 L 553.265900 228.005500 L 553.669700 221.589400 L 554.038900 216.828900 L 554.316500 213.679800 L 554.619300 210.550300 L 554.947500 207.440400 L 555.300800 204.350200 L 555.679400 201.279600 L 556.083200 198.228700 L 556.512300 195.197400 L 556.966600 192.185700 L 557.446100 189.193700 L 557.950900 186.221300 L 558.480900 183.268600 L 559.036200 180.335500 L 559.616700 177.422000 L 560.222400 174.528200 L 560.853400 171.654000 L 561.509600 168.799400 L 562.191000 165.964500 L 562.897700 163.149200 L 563.629700 160.353600 L 564.386800 157.577600 L 565.169200 154.821300 L 565.976900 152.084500 L 566.809800 149.367400 L 567.667900 146.670000 L 568.551200 143.992200 L 569.459800 141.334000 L 570.393700 138.695500 L 571.352800 136.076600 L 572.337100 133.477400 L 573.346600 130.897700 L 574.381400 128.337800 L 575.441500 125.797400 L 576.526800 123.276700 L 577.637300 120.775700 L 578.773000 118.294300 L 579.934000 115.832500 L 581.120200 113.390300 L 582.331700 110.967800 L 583.568400 108.565000 L 584.830400 106.181700 L 586.117600 103.818100 L 587.430000 101.474200 L 588.767600 99.149900 L 590.130500 96.845200 L 591.518700 94.560200 L 592.932100 92.294800 L 594.370700 90.049000 L 595.834500 87.822900 L 597.323600 85.616400 L 598.838000 83.429600 L 600.377600 81.262400 L 601.942400 79.114800 L 603.532400 76.986900 L 604.336900 75.930300 L 605.148100 74.880200 L 606.791700 72.804900 L 608.463600 70.762500 L 610.163700 68.753000 L 611.892200 66.776500 L 613.648900 64.832900 L 615.434000 62.922300 L 617.247300 61.044600 L 619.088900 59.199800 L 620.958900 57.388000 L 622.857100 55.609200 L 624.783600 53.863200 L 626.738400 52.150300 L 628.721500 50.470200 L 630.732900 48.823100 L 632.772500 47.209000 L 634.840500 45.627700 L 636.936700 44.079500 L 639.061300 42.564100 L 641.214100 41.081700 L 643.395300 39.632300 L 645.604700 38.215800 L 647.842400 36.832200 L 650.108400 35.481600 L 652.402700 34.163900 L 654.725300 32.879200 L 657.076200 31.627400 L 659.455400 30.408500 L 661.862900 29.222600 L 664.298600 28.069600 L 666.762700 26.949600 L 669.255000 25.862500 L 671.775700 24.808400 L 674.324600 23.787200 L 676.901800 22.798900 L 679.507300 21.843600 L 682.141100 20.921200 L 684.803200 20.031800 L 687.493600 19.175300 L 690.212300 18.351700 L 692.959300 17.561100 L 695.734500 16.803500 L 698.538100 16.078700 L 701.369900 15.387000 L 704.230100 14.728100 L 707.118500 14.102200 L 710.035200 13.509300 L 712.980300 12.949300 L 715.953600 12.422200 L 718.955200 11.928100 L 721.985100 11.466900 L 725.043300 11.038600 L 728.129700 10.643300 L 731.244500 10.281000 L 734.387600 9.951500 L 737.558900 9.655100 L 740.758600 9.391500 L 743.986500 9.160900 L 747.242700 8.963300 L 750.527300 8.798600 L 753.840100 8.666800 L 757.181200 8.568000 L 760.550600 8.502100 L 763.948300 8.469100 L 765.657700 8.465000 Z" transform="scale(0.500000,0.500000) translate(10.000000,242.000000)" fill="#008bcd" opacity="1.000000"></path>
    </g>
</svg>