<?xml version="1.0" encoding="UTF-8" standalone="yes"?>
<!DOCTYPE svg PUBLIC "-//W3C//DTD SVG 1.1//EN" "http://www.w3.org/Graphics/SVG/1.1/DTD/svg11.dtd">

<svg width="500" height="500" viewBox="0 0 500 500" xmlns="http://www.w3.org/2000/svg" xmlns:xlink="http://www.w3.org/1999/xlink" version="1.1" baseProfile="full">
    <g transform="scale(1,-1) translate(0,-500)">
        <path d="M 5.000000 503.000000 L 7.281779 553.699221 L 14.127128 602.495060 L 25.536064 649.387558 L 41.508603 694.376755 L 62.044763 737.462692 L 87.144560 778.645410 L 116.808012 817.924950 L 151.035135 855.301351 L 188.479882 889.449613 L 227.796222 919.044717 L 268.984195 944.086681 L 312.043843 964.575522 L 356.975207 980.511257 L 403.778327 991.893903 L 452.453244 998.723479 L 503.000000 1001.000000 L 553.699221 998.723479 L 602.495060 991.893903 L 649.387558 980.511257 L 694.376755 964.575522 L 737.462692 944.086681 L 778.645410 919.044717 L 817.924950 889.449613 L 855.301351 855.301351 L 889.449613 817.924950 L 919.044717 778.645410 L 944.086681 737.462692 L 964.575522 694.376755 L 980.511257 649.387558 L 991.893903 602.495060 L 998.723479 553.699221 L 1001.000000 503.000000 L 998.723479 452.453244 L 991.893903 403.778327 L 980.511257 356.975207 L 964.575522 312.043843 L 944.086681 268.984195 L 919.044717 227.796222 L 889.449613 188.479882 L 855.301351 151.035135 L 817.924950 116.808011 L 778.645410 87.144559 L 737.462692 62.044761 L 694.376755 41.508602 L 649.387558 25.536063 L 602.495060 14.127128 L 553.699221 7.281779 L 503.000000 5.000000 L 452.453244 7.281779 L 403.778327 14.127128 L 356.975207 25.536063 L 312.043843 41.508602 L 268.984195 62.044761 L 227.796222 87.144559 L 188.479882 116.808011 L 151.035135 151.035135 L 116.808012 188.479882 L 87.144560 227.796222 L 62.044763 268.984195 L 41.508603 312.043843 L 25.536064 356.975207 L 14.127128 403.778327 L 7.281779 452.453244 L 5.000000 503.000000 Z M 46.724324 503.000000 L 48.801059 456.286046 L 55.031272 411.370314 L 65.414980 368.252767 L 79.952199 326.933367 L 98.642943 287.412077 L 121.487229 249.688858 L 148.485071 213.763674 L 179.636486 179.636486 L 213.763683 148.485071 L 249.688873 121.487229 L 287.412095 98.642943 L 326.933387 79.952199 L 368.252786 65.414980 L 411.370329 55.031272 L 456.286055 48.801059 L 503.000000 46.724324 L 549.871684 48.801059 L 594.924112 55.031272 L 638.157323 65.414980 L 679.571356 79.952199 L 719.166250 98.642943 L 756.942044 121.487229 L 792.898777 148.485071 L 827.036486 179.636486 L 858.187905 213.763674 L 885.185750 249.688858 L 908.030036 287.412077 L 926.720779 326.933367 L 941.257996 368.252767 L 951.641703 411.370314 L 957.871915 456.286046 L 959.948649 503.000000 L 957.871915 549.871684 L 951.641703 594.924112 L 941.257996 638.157323 L 926.720779 679.571356 L 908.030036 719.166250 L 885.185750 756.942044 L 858.187905 792.898777 L 827.036486 827.036486 L 792.898777 858.187905 L 756.942044 885.185750 L 719.166250 908.030036 L 679.571356 926.720779 L 638.157323 941.257996 L 594.924112 951.641703 L 549.871684 957.871915 L 503.000000 959.948649 L 456.133573 957.871915 L 411.096916 951.641703 L 367.889991 941.257996 L 326.512759 926.720779 L 286.965182 908.030036 L 249.247222 885.185750 L 213.358841 858.187905 L 179.300000 827.036486 L 148.227450 792.898777 L 121.297957 756.942044 L 98.511505 719.166250 L 79.868079 679.571356 L 65.367663 638.157323 L 55.010242 594.924112 L 48.795801 549.871684 L 46.724324 503.000000 Z M 627.500000 136.229730 L 596.879683 119.825968 L 564.240560 106.282402 L 529.582509 95.598987 L 492.905405 87.775676 L 486.343906 126.471626 L 484.156757 164.494595 L 486.259780 196.587047 L 492.568873 229.604718 L 503.084070 263.547733 L 517.805405 298.416216 L 527.227027 298.416216 L 535.131862 299.183819 L 542.526702 301.486628 L 549.411548 305.324647 L 555.786399 310.697879 L 561.651257 317.606327 L 567.006124 326.049993 L 576.185883 347.542994 L 583.325684 375.176903 L 588.425534 408.951746 L 591.485439 448.867545 L 592.505405 494.924324 L 591.485439 542.558394 L 588.425534 583.841174 L 583.325684 618.772690 L 576.185883 647.352966 L 567.006124 669.582026 L 561.651257 678.314858 L 555.786399 685.459896 L 549.411548 691.017142 L 542.526702 694.986600 L 535.131862 697.368272 L 527.227027 698.162162 L 517.805405 698.162162 L 500.728657 731.642642 L 488.531029 764.786500 L 481.212480 797.593865 L 478.772973 830.064865 L 479.656243 849.833483 L 482.306061 869.433790 L 486.722444 888.865851 L 492.905405 908.129730 L 527.311225 900.811139 L 561.212182 890.295972 L 594.608399 876.584171 L 627.500000 859.675676 L 642.011007 817.825097 L 654.587169 775.049331 L 665.228530 731.348223 L 673.935135 686.721622 L 680.706955 641.169695 L 685.543945 594.692594 L 688.446125 547.290142 L 689.413514 498.962162 L 688.446125 449.729888 L 685.543945 401.633436 L 680.706955 354.672631 L 673.935135 308.847297 L 665.228530 264.115539 L 654.587169 220.435466 L 642.011007 177.806918 L 627.500000 136.229730 Z M 473.389189 87.775676 L 452.527027 87.775676 L 433.915059 88.869249 L 418.457731 92.149979 L 406.154983 97.617881 L 397.006757 105.272973 L 390.382157 115.830238 L 385.650318 130.004692 L 382.811226 147.796394 L 381.864865 169.205405 L 383.336980 199.489310 L 387.753332 225.735313 L 395.113932 247.943428 L 405.418794 266.113671 L 418.667928 280.246057 L 434.861346 290.340600 L 453.999060 296.397315 L 476.081081 298.416216 L 496.270270 298.416216 L 481.548935 266.828496 L 471.033738 233.979069 L 464.724645 199.867810 L 462.621622 164.494595 L 463.294590 144.557732 L 465.313500 125.125673 L 468.678364 106.198345 L 473.389189 87.775676 Z M 492.905405 698.162162 L 476.754054 698.162162 L 453.252480 700.149518 L 432.884488 706.111596 L 415.650065 716.048411 L 401.549199 729.959977 L 390.581880 747.846310 L 382.748095 769.707424 L 378.047833 795.543334 L 376.481081 825.354054 L 377.469505 847.625313 L 380.434784 865.984837 L 385.376928 880.432686 L 392.295946 890.968919 L 402.033019 898.476818 L 415.429352 903.839566 L 432.484996 907.057194 L 453.200000 908.129730 L 472.043243 908.129730 L 465.565864 886.762803 L 460.939176 866.405405 L 458.163171 847.057467 L 457.237838 828.718919 L 459.467044 795.070204 L 466.154684 762.094588 L 477.300793 729.791949 L 492.905405 698.162162 Z" transform="scale(0.500000,0.500000) translate(-3.000000,-3.000000)" fill="#008bcd" opacity="1.000000"></path>
    </g>
</svg>