<?xml version="1.0" encoding="UTF-8" standalone="yes"?>
<!DOCTYPE svg PUBLIC "-//W3C//DTD SVG 1.1//EN" "http://www.w3.org/Graphics/SVG/1.1/DTD/svg11.dtd">

<svg width="500" height="500" viewBox="0 0 500 500" xmlns="http://www.w3.org/2000/svg" xmlns:xlink="http://www.w3.org/1999/xlink" version="1.1" baseProfile="full">
    <g transform="scale(1,-1) translate(0,-500)">
        <path d="M 799.671600 4.000000 L 52.390017 4.000000 L 52.390017 50.569258 L 4.691193 50.569258 L 4.691193 941.206312 L 126.209626 941.206312 L 127.771190 953.212491 L 130.752358 964.199906 L 135.153140 974.168606 L 140.973548 983.118644 L 147.787674 990.504263 L 155.169621 995.779684 L 163.119414 998.944924 L 171.637078 1000.000000 L 181.157365 999.081355 L 189.559688 996.325416 L 196.844052 991.732178 L 203.010462 985.301635 L 208.058925 977.033782 L 211.989447 966.928615 L 214.802032 954.986126 L 216.496687 941.206312 L 323.251199 941.206312 L 324.812759 953.212491 L 327.793922 964.199906 L 332.194703 974.168606 L 338.015121 983.118644 L 344.829253 990.504263 L 352.211194 995.779684 L 360.160981 998.944924 L 368.678651 1000.000000 L 378.198938 999.081355 L 386.601260 996.325416 L 393.885624 991.732178 L 400.052035 985.301635 L 405.100498 977.033782 L 409.031019 966.928615 L 411.843604 954.986126 L 413.538259 941.206312 L 525.403360 941.206312 L 526.964920 953.212491 L 529.946083 964.199906 L 534.346864 974.168606 L 540.167282 983.118644 L 546.981414 990.504263 L 554.363355 995.779684 L 562.313141 998.944924 L 570.830812 1000.000000 L 580.351097 999.081355 L 588.753415 996.325416 L 596.037773 991.732178 L 602.204179 985.301635 L 607.252639 977.033782 L 611.183161 966.928615 L 613.995752 954.986126 L 615.690420 941.206312 L 751.972776 941.206312 L 751.972776 894.637054 L 799.671600 894.637054 Z M 776.957874 27.284629 L 776.957874 871.352425 L 751.972776 871.352425 L 751.972776 50.569258 L 75.103743 50.569258 L 75.103743 27.284629 Z M 729.259050 73.853887 L 729.259050 917.921683 L 571.398655 917.921683 L 574.876672 906.133817 L 577.946571 901.440523 L 581.903753 897.547633 L 588.504952 890.853314 L 590.705322 884.741087 L 589.463173 877.100799 L 585.736716 871.643466 L 579.525935 868.369076 L 570.830812 867.277615 L 562.180044 868.068922 L 554.398807 870.442844 L 547.487094 874.399389 L 541.444901 879.938564 L 536.272221 887.060374 L 531.969048 895.764827 L 528.535377 906.051928 L 525.971203 917.921683 L 369.246494 917.921683 L 372.724528 906.133817 L 375.794429 901.440523 L 379.751592 897.547633 L 386.352774 890.853314 L 388.553161 884.741087 L 387.311012 877.100799 L 383.584556 871.643466 L 377.373774 868.369076 L 368.678651 867.277615 L 360.027883 868.068922 L 352.246646 870.442844 L 345.334934 874.399389 L 339.292740 879.938564 L 334.120060 887.060374 L 329.816887 895.764827 L 326.383217 906.051928 L 323.819042 917.921683 L 172.204921 917.921683 L 175.682947 906.133817 L 178.752847 901.440523 L 182.710020 897.547633 L 189.311210 890.853314 L 191.511588 884.741087 L 190.269440 877.100799 L 186.542983 871.643466 L 180.332201 868.369076 L 171.637078 867.277615 L 162.986310 868.068922 L 155.205070 870.442844 L 148.293355 874.399389 L 142.251159 879.938564 L 137.078478 887.060374 L 132.775306 895.764827 L 129.341638 906.051928 L 126.777470 917.921683 L 27.404919 917.921683 L 27.404919 73.853887 Z M 521.428458 248.488603 L 223.878648 248.488603 L 223.878648 321.835184 L 328.361787 321.835184 L 328.361787 607.654004 L 246.592374 559.338399 L 210.250412 622.206897 L 346.532768 703.703098 L 416.945318 703.703098 L 416.945318 321.835184 L 521.428458 321.835184 Z" transform="scale(0.500000,0.500000) translate(98.000000,-2.000000)" fill="#008bcd" opacity="1.000000"></path>
    </g>
</svg>