<?xml version="1.0" encoding="UTF-8" standalone="yes"?>
<!DOCTYPE svg PUBLIC "-//W3C//DTD SVG 1.1//EN" "http://www.w3.org/Graphics/SVG/1.1/DTD/svg11.dtd">

<svg width="500" height="500" viewBox="0 0 500 500" xmlns="http://www.w3.org/2000/svg" xmlns:xlink="http://www.w3.org/1999/xlink" version="1.1" baseProfile="full">
    <g transform="scale(1,-1) translate(0,-500)">
        <path d="M 69.062944 821.188171 L 98.657821 740.570992 L 1000.791427 740.570992 L 881.391420 232.376726 L 211.934774 232.376726 L 4.770614 797.717320 Z M 124.170650 672.199504 L 259.898900 300.748253 L 827.304192 300.748253 L 914.047810 672.199504 Z M 351.745083 176.250853 L 368.934383 174.688270 L 384.784203 170.000506 L 399.294598 162.187537 L 412.465623 151.249339 L 423.404273 138.078872 L 431.217577 123.569089 L 435.905549 107.719931 L 437.468203 90.531341 L 435.905549 73.342757 L 431.217577 57.493602 L 423.404273 42.983820 L 412.465623 29.813355 L 399.294598 18.875152 L 384.784203 11.062179 L 368.934383 6.374412 L 351.745083 4.811829 L 334.555775 6.374412 L 318.705956 11.062179 L 304.195565 18.875152 L 291.024543 29.813355 L 280.085887 42.983820 L 272.272591 57.493602 L 267.584631 73.342757 L 266.021983 90.531341 L 267.584631 107.719931 L 272.272591 123.569089 L 280.085887 138.078872 L 291.024543 151.249339 L 304.195565 162.187537 L 318.705956 170.000506 L 334.555775 174.688270 L 351.745083 176.250853 Z M 722.191385 176.250853 L 739.380684 174.688270 L 755.230500 170.000506 L 769.740884 162.187537 L 782.911886 151.249339 L 793.850531 138.078872 L 801.663821 123.569089 L 806.351779 107.719931 L 807.914427 90.531341 L 806.351779 73.342757 L 801.663821 57.493602 L 793.850531 42.983820 L 782.911886 29.813355 L 769.740884 18.875152 L 755.230500 11.062179 L 739.380684 6.374412 L 722.191385 4.811829 L 705.002052 6.374412 L 689.152231 11.062179 L 674.641843 18.875152 L 661.470807 29.813355 L 650.532162 42.983820 L 642.718872 57.493602 L 638.030913 73.342757 L 636.468266 90.531341 L 638.062805 107.719931 L 642.846439 123.569089 L 650.819193 138.078872 L 661.981094 151.249339 L 675.311555 162.187537 L 689.790062 170.000506 L 705.416657 174.688270 L 722.191385 176.250853 Z M 768.114477 449.736920 L 768.114477 381.365432 L 300.719426 381.365432 L 300.719426 449.736920 Z M 833.427256 594.643728 L 833.427256 525.251747 L 235.406588 525.251747 L 235.406588 594.643728 Z" transform="scale(0.500000,0.500000) translate(-4.000000,88.000000)" fill="#008bcd" opacity="1.000000"></path>
    </g>
</svg>