<?xml version="1.0" encoding="UTF-8" standalone="yes"?>
<!DOCTYPE svg PUBLIC "-//W3C//DTD SVG 1.1//EN" "http://www.w3.org/Graphics/SVG/1.1/DTD/svg11.dtd">

<svg width="500" height="500" viewBox="0 0 500 500" xmlns="http://www.w3.org/2000/svg" xmlns:xlink="http://www.w3.org/1999/xlink" version="1.1" baseProfile="full">
    <g transform="scale(1,-1) translate(0,-500)">
        <path d="M 252.103148 322.724008 L 251.307174 331.407900 L 248.919243 339.531511 L 244.939344 347.094870 L 239.367463 354.098006 L 232.571006 359.980654 L 224.917364 364.182528 L 216.406508 366.703642 L 207.038407 367.544010 L 195.955876 365.738773 L 185.240765 360.323043 L 174.893035 351.296795 L 164.912646 338.660003 L 155.238403 351.296795 L 144.829447 360.323043 L 133.685736 365.738773 L 121.807231 367.544010 L 112.837120 366.641390 L 104.540565 363.933522 L 96.917535 359.420396 L 89.968002 353.102002 L 84.181816 345.725367 L 80.048841 338.037508 L 77.569066 330.038397 L 76.742476 321.728004 L 77.538451 312.670608 L 79.926383 304.422495 L 83.906284 296.983637 L 89.478165 290.354007 L 96.274628 284.907112 L 103.928273 281.016488 L 112.439130 278.682121 L 121.807231 277.904002 L 134.053117 279.522489 L 145.319288 284.377969 L 155.605784 292.470464 L 164.912646 303.800002 L 174.893035 292.470464 L 185.240765 284.377969 L 195.955876 279.522489 L 207.038407 277.904002 L 217.600499 278.604308 L 226.754294 280.705231 L 234.499799 284.206776 L 240.837019 289.108948 L 245.765958 295.411751 L 249.286623 303.115193 L 251.399017 312.219277 L 252.103148 322.724008 Z M 912.399764 181.292000 L 912.399764 209.180000 L 83.600159 209.180000 L 83.600159 181.292000 Z M 469.589585 503.000019 L 469.589585 838.652039 L 420.606155 838.652039 L 97.315516 819.728023 L 53.230429 503.000019 Z M 919.257489 322.724008 L 918.461517 331.407900 L 916.073586 339.531511 L 912.093677 347.094870 L 906.521767 354.098006 L 899.664089 359.980654 L 891.826757 364.182528 L 883.009743 366.703642 L 873.213020 367.544010 L 862.497912 365.738773 L 851.905282 360.323043 L 841.435094 351.296795 L 831.087314 338.660003 L 822.943796 351.296795 L 818.275069 356.261235 L 813.208355 360.323043 L 807.743650 363.482221 L 801.880948 365.738773 L 795.620245 367.092701 L 788.961535 367.544010 L 779.593453 366.641390 L 771.082603 363.933522 L 763.428964 359.420396 L 756.632516 353.102002 L 751.060606 345.725367 L 747.080696 338.037508 L 744.692766 330.038397 L 743.896794 321.728004 L 744.692766 312.670608 L 747.080696 304.422495 L 751.060606 296.983637 L 756.632516 290.354007 L 763.428964 284.907112 L 771.082603 281.016488 L 779.593453 278.682121 L 788.961535 277.904002 L 801.880948 279.522489 L 813.208355 284.377969 L 822.943796 292.470464 L 831.087314 303.800002 L 841.435094 292.470464 L 851.905282 284.377969 L 862.497912 279.522489 L 873.213020 277.904002 L 884.004742 278.604308 L 893.357548 280.705231 L 901.271445 284.206776 L 907.746437 289.108948 L 912.782531 295.411751 L 916.379734 303.115193 L 918.538051 312.219277 L 919.257489 322.724008 Z M 942.769550 503.000019 L 898.684463 819.728023 L 526.410357 838.652039 L 526.410357 503.000019 Z M 747.815483 865.544010 L 747.815483 969.128029 L 248.184477 969.128029 L 248.184477 865.544010 Z M 991.752980 440.252005 L 979.017258 230.096001 L 979.017258 226.112002 L 979.996912 221.132000 L 988.813963 207.187975 L 991.018226 203.950990 L 991.569292 203.266246 L 991.707058 203.157311 L 991.752980 203.204000 L 991.752980 105.595998 L 913.379492 105.595998 L 913.379492 5.000000 L 755.652787 5.000000 L 755.652787 105.595998 L 240.347136 105.595998 L 240.347136 5.000000 L 83.600159 5.000000 L 83.600159 104.599994 L 4.246999 104.599994 L 4.246999 202.208000 L 4.981745 201.896734 L 7.185990 204.946966 L 16.003022 221.132000 L 16.003022 225.614000 L 16.003022 230.096001 L 4.246999 440.252005 L 4.262784 440.483740 L 4.310141 440.929944 L 4.499567 442.465758 L 5.257273 448.111013 L 8.288102 469.696058 L 20.411450 554.044472 L 68.905126 887.456056 L 71.599218 900.777587 L 75.272967 913.352089 L 79.926378 925.179571 L 85.559456 936.260045 L 92.172208 946.593519 L 99.764639 956.180004 L 108.336754 965.019509 L 117.888560 973.112045 L 127.195402 979.088030 L 139.441268 985.064015 L 157.136572 992.036040 L 173.974598 997.016032 L 189.955407 1000.004012 L 205.079062 1001.000000 L 790.920917 1001.000000 L 809.044799 999.817264 L 827.168625 996.269044 L 845.292451 990.355316 L 863.416333 982.076060 L 874.805033 975.804338 L 884.969117 968.941269 L 893.908593 961.486843 L 901.623471 953.441049 L 908.113756 944.803880 L 913.379458 935.575323 L 917.420584 925.755371 L 920.237142 915.344012 L 930.952295 860.003733 L 942.524609 792.587152 L 954.954134 713.093998 L 968.240919 621.524001 L 985.874984 490.549805 L 990.283483 455.316439 L 991.385606 445.263116 L 991.661137 442.127286 L 991.752980 440.252005 Z" transform="scale(0.500000,0.500000) translate(2.000000,-3.000000)" fill="#008bcd" opacity="1.000000"></path>
    </g>
</svg>