<?xml version="1.0" encoding="UTF-8" standalone="yes"?>
<!DOCTYPE svg PUBLIC "-//W3C//DTD SVG 1.1//EN" "http://www.w3.org/Graphics/SVG/1.1/DTD/svg11.dtd">

<svg width="500" height="500" viewBox="0 0 500 500" xmlns="http://www.w3.org/2000/svg" xmlns:xlink="http://www.w3.org/1999/xlink" version="1.1" baseProfile="full">
    <g transform="scale(1,-1) translate(0,-500)">
        <path d="M 382.554715 990.006726 Q 397.329732 989.013442 422.850215 987.026874 L 422.850215 833.398934 Q 406.732015 835.385502 368.787087 836.378786 Q 330.842158 837.372070 316.402937 819.824051 Q 301.963717 802.276032 301.963717 781.085972 Q 301.963717 759.895911 301.963717 720.164547 L 427.551356 720.164547 L 427.551356 587.064479 L 301.963717 587.064479 L 301.963717 4.999999 L 111.231686 4.999999 L 111.231686 587.064479 L 4.448613 587.064479 L 4.448613 720.164547 L 109.216911 720.164547 L 109.216911 766.517805 Q 109.216911 882.400949 148.840819 926.105449 Q 190.479502 991.000010 349.646724 991.000010 Q 367.779699 991.000010 382.554715 990.006726 Z" transform="scale(0.500000,0.500000) translate(284.000000,2.000000)" fill="#008bcd" opacity="1.000000"></path>
    </g>
</svg>