<?xml version="1.0" encoding="UTF-8" standalone="yes"?>
<!DOCTYPE svg PUBLIC "-//W3C//DTD SVG 1.1//EN" "http://www.w3.org/Graphics/SVG/1.1/DTD/svg11.dtd">

<svg width="500" height="500" viewBox="0 0 500 500" xmlns="http://www.w3.org/2000/svg" xmlns:xlink="http://www.w3.org/1999/xlink" version="1.1" baseProfile="full">
    <g transform="scale(1,-1) translate(0,-500)">
        <path d="M 533.747630 128.407726 Q 533.747630 77.341861 497.078984 40.866243 Q 460.410337 4.390625 409.074232 4.390625 L 378.272570 4.390625 Q 224.264255 4.390625 114.258316 113.087966 Q 4.252377 221.785308 4.252377 374.982903 L 4.252377 869.592281 Q 4.252377 920.658146 41.654396 957.133764 Q 79.056415 993.609382 130.392520 993.609382 Q 181.728625 993.609382 218.397272 957.133764 Q 255.065918 920.658146 255.065918 869.592281 L 255.065918 745.575180 L 409.074232 745.575180 Q 460.410337 745.575180 497.078984 709.099563 Q 533.747630 672.623945 533.747630 621.558080 Q 533.747630 570.492215 497.078984 534.016597 Q 460.410337 497.540979 409.074232 497.540979 L 253.599172 497.540979 L 253.599172 374.982903 Q 253.599172 325.376062 290.267818 288.900445 Q 326.936465 252.424827 376.805824 252.424827 L 409.074232 252.424827 Q 460.410337 252.424827 497.078984 215.949209 Q 533.747630 179.473591 533.747630 128.407726 Z" transform="scale(0.500000,0.500000) translate(231.000000,1.000000)" fill="#008bcd" opacity="1.000000"></path>
    </g>
</svg>