<?xml version="1.0" encoding="UTF-8" standalone="yes"?>
<!DOCTYPE svg PUBLIC "-//W3C//DTD SVG 1.1//EN" "http://www.w3.org/Graphics/SVG/1.1/DTD/svg11.dtd">

<svg width="500" height="500" viewBox="0 0 500 500" xmlns="http://www.w3.org/2000/svg" xmlns:xlink="http://www.w3.org/1999/xlink" version="1.1" baseProfile="full">
    <g transform="scale(1,-1) translate(0,-500)">
        <path d="M 1000.000000 59.812793 L 983.578627 47.265613 L 966.535399 36.391411 L 948.870296 27.190181 L 930.583300 19.661916 L 911.674392 13.806611 L 892.143554 9.624258 L 871.990767 7.114851 L 851.216012 6.278383 L 827.405786 7.158878 L 804.306403 9.800370 L 781.917774 14.202869 L 760.239812 20.366384 L 745.965498 25.121093 L 731.572795 30.932380 L 717.061635 37.800271 L 702.431951 45.724792 L 683.241659 55.586405 L 677.733361 58.051795 L 676.000918 58.668141 L 674.949610 58.873590 L 674.740447 58.814890 L 674.349897 58.638792 L 673.024635 57.934396 L 668.197455 55.116807 L 649.836370 43.846385 L 628.632250 31.636774 L 613.351132 25.062384 L 579.886477 16.022561 L 549.620336 9.565567 L 522.552603 5.691384 L 498.683173 4.399994 L 498.660963 4.399994 L 498.594330 4.399994 L 498.327801 4.399994 L 497.261678 4.399994 L 492.997138 4.399994 L 483.520449 4.399994 L 470.430761 5.045689 L 456.748823 6.982779 L 442.474587 10.211274 L 427.608006 14.731180 L 415.169844 20.307676 L 397.756480 29.523548 L 348.003804 58.873590 L 345.990009 58.345293 L 342.791636 56.760399 L 332.841116 50.420793 L 322.653650 43.376783 L 316.730737 39.150385 L 299.568990 31.005728 L 282.199990 23.947038 L 264.623720 17.974313 L 246.840163 13.087547 L 228.849302 9.286736 L 210.651120 6.571877 L 192.245602 4.942964 L 173.632730 4.399994 L 152.946828 5.221787 L 132.112912 7.687169 L 111.130962 11.796147 L 90.000958 17.548727 L 68.722880 24.944915 L 47.296707 33.984718 L 25.722421 44.668141 L 4.000000 56.995191 L 4.000000 60.751988 L 6.843007 101.137592 L 26.921806 86.609283 L 47.355923 74.018104 L 68.145376 63.364050 L 89.290187 54.647112 L 110.790375 47.867283 L 132.645960 43.024557 L 154.856963 40.118927 L 177.423402 39.150385 L 193.474576 39.678682 L 209.407234 41.263576 L 225.221432 43.905077 L 240.917225 47.603191 L 256.139148 53.414478 L 279.060818 64.273940 L 348.003804 101.137592 L 348.684944 100.961493 L 349.780685 100.433197 L 353.215975 98.320007 L 365.061837 89.867193 L 389.701250 71.083192 L 412.682218 58.638775 L 430.451005 51.359987 L 449.285961 46.018271 L 468.831598 42.202772 L 489.087988 39.913480 L 510.055207 39.150385 L 529.186305 40.148279 L 548.672709 43.141969 L 568.514490 48.131469 L 588.711719 55.116793 L 616.431036 67.795978 L 646.519543 85.171193 L 666.894439 97.146012 L 672.461970 100.139699 L 674.090774 100.888119 L 674.949610 101.137592 L 674.980150 101.118331 L 675.071769 101.060549 L 675.438246 100.829419 L 676.904155 99.904901 L 682.767814 96.206815 L 706.222641 81.414387 L 734.178899 64.978376 L 755.501467 55.116793 L 778.423224 48.131469 L 799.804954 43.141969 L 819.646732 40.148279 L 837.948632 39.150385 L 858.308768 40.089577 L 878.639234 42.907157 L 898.940048 47.603133 L 919.211230 54.177512 L 939.452797 62.630300 L 959.664769 72.961505 L 979.847164 85.171134 L 1000.000000 99.259193 Z M 350.846803 222.294399 L 122.458613 222.294399 L 350.846803 929.512005 Z M 978.203659 185.665596 L 875.855388 59.812793 L 856.428147 58.403988 L 845.648433 57.347388 L 842.479685 57.083240 L 840.791668 56.995191 L 814.849203 58.051786 L 795.777395 61.221590 L 750.763123 75.779192 L 725.649891 88.458374 L 692.007607 107.711990 L 689.046160 110.059986 L 683.952436 115.225592 L 678.621799 120.156400 L 674.949610 121.799991 L 674.105581 121.535843 L 672.521199 120.743399 L 667.131353 117.573613 L 647.467198 104.894388 L 622.353926 90.101974 L 607.665097 81.414387 L 580.241869 69.909153 L 553.884871 61.691159 L 528.594005 56.760380 L 504.369172 55.116793 L 504.302540 55.116793 L 504.102643 55.116793 L 503.303052 55.116793 L 500.104655 55.116793 L 492.049484 55.116793 L 474.754519 55.821187 L 462.671762 57.934386 L 448.693659 63.510866 L 424.765092 75.544322 L 347.056149 118.982393 L 346.197323 118.718246 L 344.568524 117.925801 L 339.000992 114.756014 L 318.626082 102.076795 L 287.353002 82.823178 L 257.975258 68.265590 L 237.304191 60.458465 L 216.988575 54.881968 L 197.028337 51.536084 L 177.423402 50.420793 L 177.242014 50.468486 L 176.934765 50.611566 L 175.942682 51.183886 L 172.448168 53.473175 L 159.417696 62.630386 L 142.833462 73.959503 L 126.249288 87.284373 L 109.665112 102.605051 L 93.080873 119.921593 L 75.193568 140.466642 L 62.281587 158.898415 L 57.691332 167.321844 L 54.344893 175.216979 L 52.242266 182.583827 L 51.383445 189.422396 L 380.224561 189.422396 L 380.224561 943.600006 L 402.020938 943.600006 L 402.020938 185.665596 Z M 928.924832 222.294399 L 433.294005 222.294399 L 433.294005 931.390448 Z" transform="scale(0.500000,0.500000) translate(-2.000000,25.000000)" fill="#008bcd" opacity="1.000000"></path>
    </g>
</svg>