<?xml version="1.0" encoding="UTF-8" standalone="yes"?>
<!DOCTYPE svg PUBLIC "-//W3C//DTD SVG 1.1//EN" "http://www.w3.org/Graphics/SVG/1.1/DTD/svg11.dtd">

<svg width="500" height="500" viewBox="0 0 500 500" xmlns="http://www.w3.org/2000/svg" xmlns:xlink="http://www.w3.org/1999/xlink" version="1.1" baseProfile="full">
    <g transform="scale(1,-1) translate(0,-500)">
        <path d="M 217.877451 4.000000 L 16.947843 4.000000 L 16.947843 16.250146 L 4.122549 16.250146 L 4.122549 250.534191 L 36.796513 250.534191 L 37.216387 253.692443 L 38.017965 256.582706 L 39.201251 259.204995 L 40.766246 261.559322 L 42.598434 263.502125 L 44.583297 264.889836 L 46.720843 265.722460 L 49.011078 266.000000 L 51.570900 265.758348 L 53.830123 265.033393 L 55.788747 263.825131 L 57.446776 262.133563 L 58.804211 259.958686 L 59.861052 257.300499 L 60.617302 254.159001 L 61.072962 250.534191 L 89.777192 250.534191 L 90.197065 253.692443 L 90.998642 256.582706 L 92.181928 259.204995 L 93.746926 261.559322 L 95.579115 263.502125 L 97.563976 264.889836 L 99.701520 265.722460 L 101.991758 266.000000 L 104.551579 265.758348 L 106.810802 265.033393 L 108.769427 263.825131 L 110.427456 262.133563 L 111.784890 259.958686 L 112.841731 257.300499 L 113.597981 254.159001 L 114.053641 250.534191 L 144.132010 250.534191 L 144.551883 253.692443 L 145.353460 256.582706 L 146.536746 259.204995 L 148.101744 261.559322 L 149.933933 263.502125 L 151.918794 264.889836 L 154.056338 265.722460 L 156.346576 266.000000 L 158.906397 265.758348 L 161.165618 265.033393 L 163.124242 263.825131 L 164.782269 262.133563 L 166.139703 259.958686 L 167.196544 257.300499 L 167.952796 254.159001 L 168.408459 250.534191 L 205.052157 250.534191 L 205.052157 238.284044 L 217.877451 238.284044 Z M 211.770168 10.125073 L 211.770168 232.158971 L 205.052157 232.158971 L 205.052157 16.250146 L 23.055126 16.250146 L 23.055126 10.125073 Z M 198.944874 22.375219 L 198.944874 244.409117 L 156.499258 244.409117 L 157.434429 241.308293 L 158.259866 240.073712 L 159.323876 239.049679 L 161.098811 237.288723 L 161.690448 235.680888 L 161.356458 233.671094 L 160.354486 232.235530 L 158.684527 231.374195 L 156.346576 231.087084 L 154.020551 231.295238 L 151.928326 231.919704 L 150.069900 232.960482 L 148.445271 234.417574 L 147.054437 236.290982 L 145.897397 238.580707 L 144.974149 241.286752 L 144.284692 244.409117 L 102.144440 244.409117 L 103.079616 241.308293 L 103.905053 240.073712 L 104.969058 239.049679 L 106.743989 237.288723 L 107.335630 235.680888 L 107.001640 233.671094 L 105.999668 232.235530 L 104.329709 231.374195 L 101.991758 231.087084 L 99.665733 231.295238 L 97.573508 231.919704 L 95.715082 232.960482 L 94.090453 234.417574 L 92.699619 236.290982 L 91.542579 238.580707 L 90.619331 241.286752 L 89.929874 244.409117 L 49.163760 244.409117 L 50.098934 241.308293 L 50.924371 240.073712 L 51.988379 239.049679 L 53.763312 237.288723 L 54.354951 235.680888 L 54.020961 233.671094 L 53.018989 232.235530 L 51.349029 231.374195 L 49.011078 231.087084 L 46.685054 231.295238 L 44.592828 231.919704 L 42.734401 232.960482 L 41.109771 234.417574 L 39.718937 236.290982 L 38.561897 238.580707 L 37.638650 241.286752 L 36.949195 244.409117 L 10.229832 244.409117 L 10.229832 22.375219 Z M 143.063235 68.313267 L 63.057829 68.313267 L 63.057829 87.607247 L 91.151331 87.607247 L 91.151331 162.792519 L 69.165112 150.082992 L 59.393459 166.620690 L 96.037157 188.058445 L 114.969734 188.058445 L 114.969734 87.607247 L 143.063235 87.607247 Z" transform="scale(0.500000,0.500000) translate(390.000000,365.000000)" fill="#ffffff" opacity="1.000000"></path>
    </g>
</svg>