<?xml version="1.0" encoding="UTF-8" standalone="yes"?>
<!DOCTYPE svg PUBLIC "-//W3C//DTD SVG 1.1//EN" "http://www.w3.org/Graphics/SVG/1.1/DTD/svg11.dtd">

<svg width="500" height="500" viewBox="0 0 500 500" xmlns="http://www.w3.org/2000/svg" xmlns:xlink="http://www.w3.org/1999/xlink" version="1.1" baseProfile="full">
    <g transform="scale(1,-1) translate(0,-500)">
        <path d="M 19.000000 4.000000 L 9.316680 4.000000 C 6.555256 4.000000 4.316680 6.238576 4.316680 9.000000 L 4.316680 153.000006 C 4.316680 154.771905 5.254468 156.411466 6.781768 157.309788 L 115.465088 221.234739 C 117.073948 222.181032 119.075941 222.152409 120.657089 221.160506 L 222.557044 157.235555 C 224.014898 156.320999 224.899955 154.720979 224.899955 153.000006 L 224.899955 9.000000 C 224.899955 6.238576 222.661379 4.000000 219.899955 4.000000 L 9.316680 4.000000 L 9.316680 14.000000 L 219.899955 14.000000 L 214.899955 9.000000 L 214.899955 153.000006 L 217.242866 148.764457 L 115.342911 212.689408 L 120.534912 212.615175 L 11.851592 148.690224 L 14.316680 153.000006 L 14.316680 9.000000 L 9.316680 14.000000 L 19.000000 14.000000 L 19.000000 4.000000 Z" transform="scale(0.500000,0.500000) translate(383.000000,389.000000)" fill="#ffffff" opacity="1.000000"></path>
    </g>
</svg>