<?xml version="1.0" encoding="UTF-8" standalone="yes"?>
<!DOCTYPE svg PUBLIC "-//W3C//DTD SVG 1.1//EN" "http://www.w3.org/Graphics/SVG/1.1/DTD/svg11.dtd">

<svg width="500" height="500" viewBox="0 0 500 500" xmlns="http://www.w3.org/2000/svg" xmlns:xlink="http://www.w3.org/1999/xlink" version="1.1" baseProfile="full">
    <g transform="scale(1,-1) translate(0,-500)">
        <path d="M 4.354194 136.000000 L 4.961962 149.389036 L 6.785269 162.275412 L 9.824119 174.659139 L 14.078518 186.540228 L 19.548468 197.918690 L 26.233976 208.794535 L 34.135045 219.167774 L 43.251680 229.038418 L 53.225352 238.056551 L 63.697536 245.872251 L 74.668243 252.485523 L 86.137483 257.896372 L 98.105268 262.104802 L 110.571609 265.110818 L 123.536516 266.914424 L 137.000000 267.515625 L 150.504094 266.914424 L 163.501210 265.110818 L 175.991357 262.104802 L 187.974546 257.896372 L 199.450789 252.485523 L 210.420096 245.872251 L 220.882477 238.056551 L 230.837945 229.038418 L 239.933575 219.167774 L 247.816439 208.794535 L 254.486543 197.918690 L 259.943890 186.540228 L 264.188485 174.659139 L 267.220333 162.275412 L 269.039438 149.389036 L 269.645806 136.000000 L 269.039438 122.651229 L 267.220333 109.796786 L 264.188485 97.436663 L 259.943890 85.570847 L 254.486543 74.199328 L 247.816439 63.322095 L 239.933575 52.939137 L 230.837945 43.050443 L 220.882477 34.011484 L 210.420096 26.177734 L 199.450789 19.549189 L 187.974546 14.125844 L 175.991357 9.907695 L 163.501210 6.894736 L 150.504094 5.086965 L 137.000000 4.484375 L 123.536516 5.086965 L 110.571609 6.894736 L 98.105268 9.907695 L 86.137483 14.125844 L 74.668243 19.549189 L 63.697536 26.177734 L 53.225352 34.011484 L 43.251680 43.050443 L 34.135045 52.939137 L 26.233976 63.322095 L 19.548468 74.199328 L 14.078518 85.570847 L 9.824119 97.436663 L 6.785269 109.796786 L 4.961962 122.651229 L 4.354194 136.000000 Z M 15.467762 136.000000 L 16.020914 123.663424 L 17.680376 111.801736 L 20.446149 100.414927 L 24.318240 89.502985 L 29.296651 79.065903 L 35.381388 69.103668 L 42.572453 59.616273 L 50.869852 50.603706 L 59.959871 42.377003 L 69.528798 35.247208 L 79.576644 29.214315 L 90.103418 24.278321 L 101.109131 20.439222 L 112.593792 17.697014 L 124.557412 16.051691 L 137.000000 15.503252 L 149.484603 16.051691 L 161.484634 17.697014 L 173.000104 20.439222 L 184.031024 24.278321 L 194.577403 29.214315 L 204.639251 35.247208 L 214.216580 42.377003 L 223.309399 50.603706 L 231.606799 59.616273 L 238.797865 69.103668 L 244.882601 79.065903 L 249.861012 89.502985 L 253.733103 100.414927 L 256.498876 111.801736 L 258.158337 123.663424 L 258.711489 136.000000 L 258.158337 148.378230 L 256.498876 160.276018 L 253.733103 171.693373 L 249.861012 182.630306 L 244.882601 193.086826 L 238.797865 203.062945 L 231.606799 212.558672 L 223.309399 221.574018 L 214.216580 229.800722 L 204.639251 236.930518 L 194.577403 242.963410 L 184.031024 247.899404 L 173.000104 251.738503 L 161.484634 254.480711 L 149.484603 256.126032 L 137.000000 256.674472 L 124.516797 256.126032 L 112.520967 254.480711 L 101.012498 251.738503 L 89.991381 247.899404 L 79.457605 242.963410 L 69.411161 236.930518 L 59.852038 229.800722 L 50.780226 221.574018 L 42.503834 212.558672 L 35.330974 203.062945 L 29.261642 193.086826 L 24.295834 182.630306 L 20.433546 171.693373 L 17.674774 160.276018 L 16.019514 148.378230 L 15.467762 136.000000 Z M 170.161451 39.140519 L 162.005514 34.808489 L 153.311854 31.231802 L 144.080438 28.410444 L 134.311234 26.344405 L 132.563532 36.563525 L 131.980970 46.604920 L 132.541125 55.080138 L 134.221596 63.799696 L 137.022393 72.763625 L 140.943524 81.971959 L 143.453039 81.971959 L 145.558548 82.174674 L 147.528215 82.782817 L 149.362042 83.796390 L 151.060029 85.215394 L 152.622175 87.039830 L 154.048482 89.269697 L 156.493575 94.945732 L 158.395311 102.243505 L 159.753692 111.163022 L 160.568720 121.704290 L 160.840395 133.867314 L 160.568720 146.446881 L 159.753692 157.349152 L 158.395311 166.574132 L 156.493575 174.121828 L 154.048482 179.992248 L 152.622175 182.298480 L 151.060029 184.185396 L 149.362042 185.652996 L 147.528215 186.701280 L 145.558548 187.330251 L 143.453039 187.539907 L 140.943524 187.539907 L 136.395012 196.381687 L 133.146088 205.134569 L 131.196741 213.798587 L 130.546961 222.373775 L 130.782226 227.594422 L 131.488024 232.770620 L 132.664358 237.902387 L 134.311234 242.989738 L 143.475466 241.056989 L 152.505224 238.280064 L 161.400542 234.658947 L 170.161451 230.193623 L 174.026560 219.141405 L 177.376310 207.844855 L 180.210711 196.303934 L 182.529777 184.518602 L 184.333499 172.488903 L 185.621865 160.214877 L 186.394881 147.696477 L 186.652552 134.933657 L 186.394881 121.932024 L 185.621865 109.230347 L 184.333499 96.828581 L 182.529777 84.726679 L 180.210711 72.913576 L 177.376310 61.378210 L 174.026560 50.120539 L 170.161451 39.140519 Z M 129.112952 26.344405 L 123.556168 26.344405 L 118.598740 26.633204 L 114.481571 27.499604 L 111.204648 28.943609 L 108.767953 30.965224 L 107.003445 33.753267 L 105.743086 37.496564 L 104.986874 42.195132 L 104.734804 47.848986 L 105.126912 55.846590 L 106.303239 62.777834 L 108.263786 68.642722 L 111.008559 73.441258 L 114.537559 77.173446 L 118.850790 79.839289 L 123.948255 81.438793 L 129.829956 81.971959 L 135.207489 81.971959 L 131.286358 73.630034 L 128.485561 64.954908 L 126.805090 55.946547 L 126.244935 46.604920 L 126.424184 41.339842 L 126.961936 36.208076 L 127.858191 31.209603 L 129.112952 26.344405 Z M 134.311234 187.539907 L 130.009208 187.539907 L 123.749398 188.064743 L 118.324240 189.639254 L 113.733730 192.263444 L 109.977865 195.937316 L 107.056642 200.660875 L 104.970059 206.434124 L 103.718111 213.257067 L 103.300795 221.129709 L 103.564069 227.011272 L 104.353892 231.859795 L 105.670267 235.675292 L 107.513196 238.457781 L 110.106734 240.440524 L 113.674942 241.856759 L 118.217832 242.706495 L 123.735419 242.989738 L 128.754450 242.989738 L 127.029154 237.346998 L 125.796803 231.970861 L 125.057395 226.861311 L 124.810926 222.018328 L 125.404691 213.132119 L 127.185991 204.423668 L 130.154835 195.892941 L 134.311234 187.539907 Z" transform="scale(0.500000,0.500000) translate(363.000000,364.000000)" fill="#feffff" opacity="1.000000"></path>
    </g>
</svg>