<?xml version="1.0" encoding="UTF-8" standalone="yes"?>
<!DOCTYPE svg PUBLIC "-//W3C//DTD SVG 1.1//EN" "http://www.w3.org/Graphics/SVG/1.1/DTD/svg11.dtd">

<svg width="500" height="500" viewBox="0 0 500 500" xmlns="http://www.w3.org/2000/svg" xmlns:xlink="http://www.w3.org/1999/xlink" version="1.1" baseProfile="full">
    <g transform="scale(1,-1) translate(0,-500)">
        <path d="M 4.000000 338.000000 L 338.000000 338.000000 L 338.000000 4.000000 L 4.000000 4.000000 Z" transform="scale(0.500000,0.500000) translate(329.000000,329.000000)" fill="#ffa700" opacity="1.000000"></path>
        <path d="M 23.210438 239.188187 L 31.725489 216.043517 L 291.287781 216.043517 L 256.933957 70.144236 L 64.317586 70.144236 L 4.712219 232.449857 Z M 39.066052 196.414506 L 78.117846 89.773258 L 241.371955 89.773258 L 266.329868 196.414506 Z M 104.543871 54.030862 L 109.489584 53.582254 L 114.049902 52.236427 L 118.224839 49.993375 L 122.014413 46.853089 L 125.161686 43.071933 L 127.409734 38.906268 L 128.758559 34.356078 L 129.208166 29.421345 L 128.758559 24.486614 L 127.409734 19.936424 L 125.161686 15.770760 L 122.014413 11.989605 L 118.224839 8.849318 L 114.049902 6.606264 L 109.489584 5.260436 L 104.543871 4.811829 L 99.598156 5.260436 L 95.037839 6.606264 L 90.862902 8.849318 L 87.073330 11.989605 L 83.926055 15.770760 L 81.678010 19.936424 L 80.329188 24.486614 L 79.879582 29.421345 L 80.329188 34.356078 L 81.678010 38.906268 L 83.926055 43.071933 L 87.073330 46.853089 L 90.862902 49.993375 L 95.037839 52.236427 L 99.598156 53.582254 L 104.543871 54.030862 Z M 211.128850 54.030862 L 216.074563 53.582254 L 220.634879 52.236427 L 224.809813 49.993375 L 228.599380 46.853089 L 231.746652 43.071933 L 233.994695 38.906268 L 235.343517 34.356078 L 235.793123 29.421345 L 235.343517 24.486614 L 233.994695 19.936424 L 231.746652 15.770760 L 228.599380 11.989605 L 224.809813 8.849318 L 220.634879 6.606264 L 216.074563 5.260436 L 211.128850 4.811829 L 206.183127 5.260436 L 201.622810 6.606264 L 197.447874 8.849318 L 193.658297 11.989605 L 190.511026 15.770760 L 188.262982 19.936424 L 186.914161 24.486614 L 186.464555 29.421345 L 186.923337 34.356078 L 188.299686 38.906268 L 190.593610 43.071933 L 193.805118 46.853089 L 197.640564 49.993375 L 201.806326 52.236427 L 206.302418 53.582254 L 211.128850 54.030862 Z M 224.341863 132.546939 L 224.341863 112.917928 L 89.862746 112.917928 L 89.862746 132.546939 Z M 243.133685 174.148745 L 243.133685 154.226757 L 71.070907 154.226757 L 71.070907 174.148745 Z" transform="scale(0.500000,0.500000) translate(352.000000,378.000000)" fill="#ffffff" opacity="1.000000"></path>
    </g>
</svg>