<?xml version="1.0" encoding="UTF-8" standalone="yes"?>
<!DOCTYPE svg PUBLIC "-//W3C//DTD SVG 1.1//EN" "http://www.w3.org/Graphics/SVG/1.1/DTD/svg11.dtd">

<svg width="500" height="500" viewBox="0 0 500 500" xmlns="http://www.w3.org/2000/svg" xmlns:xlink="http://www.w3.org/1999/xlink" version="1.1" baseProfile="full">
    <g transform="scale(1,-1) translate(0,-500)">
        <path d="M 4.000000 338.000000 L 338.000000 338.000000 L 338.000000 4.000000 L 4.000000 4.000000 Z" transform="scale(0.500000,0.500000) translate(330.000000,330.000000)" fill="#ffa700" opacity="1.000000"></path>
        <path d="M 127.683159 33.199321 Q 127.683159 21.238598 119.139785 12.695224 Q 110.596412 4.151850 98.635688 4.151850 L 91.459254 4.151850 Q 55.577084 4.151850 29.946962 29.611104 Q 4.316841 55.070359 4.316841 90.952529 L 4.316841 206.800679 Q 4.316841 218.761402 13.031082 227.304776 Q 21.745323 235.848150 33.706047 235.848150 Q 45.666770 235.848150 54.210144 227.304776 Q 62.753518 218.761402 62.753518 206.800679 L 62.753518 177.753207 L 98.635688 177.753207 Q 110.596412 177.753207 119.139785 169.209833 Q 127.683159 160.666460 127.683159 148.705736 Q 127.683159 136.745013 119.139785 128.201639 Q 110.596412 119.658265 98.635688 119.658265 L 62.411783 119.658265 L 62.411783 90.952529 Q 62.411783 79.333540 70.955157 70.790167 Q 79.498531 62.246793 91.117519 62.246793 L 98.635688 62.246793 Q 110.596412 62.246793 119.139785 53.703419 Q 127.683159 45.160045 127.683159 33.199321 Z" transform="scale(0.500000,0.500000) translate(435.000000,380.000000)" fill="#ffffff" opacity="1.000000"></path>
    </g>
</svg>