<?xml version="1.0" encoding="UTF-8" standalone="yes"?>
<!DOCTYPE svg PUBLIC "-//W3C//DTD SVG 1.1//EN" "http://www.w3.org/Graphics/SVG/1.1/DTD/svg11.dtd">

<svg width="500" height="500" viewBox="0 0 500 500" xmlns="http://www.w3.org/2000/svg" xmlns:xlink="http://www.w3.org/1999/xlink" version="1.1" baseProfile="full">
    <g transform="scale(1,-1) translate(0,-500)">
        <path d="M 4.000000 338.000000 L 338.000000 338.000000 L 338.000000 4.000000 L 4.000000 4.000000 Z" transform="scale(0.500000,0.500000) translate(330.000000,330.000000)" fill="#ffa700" opacity="1.000000"></path>
        <path d="M 98.381967 252.979039 Q 102.052948 252.728745 108.393733 252.228156 L 108.393733 213.515993 Q 104.389027 214.016582 94.961280 214.266876 Q 85.533534 214.517170 81.945984 210.095307 Q 78.358435 205.673443 78.358435 200.333835 Q 78.358435 194.994226 78.358435 184.982460 L 109.561773 184.982460 L 109.561773 151.443043 L 78.358435 151.443043 L 78.358435 4.770667 L 30.969408 4.770667 L 30.969408 151.443043 L 4.438227 151.443043 L 4.438227 184.982460 L 30.468819 184.982460 L 30.468819 196.662854 Q 30.468819 225.863839 40.313723 236.876781 Q 50.659215 253.229333 90.205691 253.229333 Q 94.710986 253.229333 98.381967 252.979039 Z" transform="scale(0.500000,0.500000) translate(444.000000,371.000000)" fill="#ffffff" opacity="1.000000"></path>
    </g>
</svg>