<?xml version="1.0" encoding="UTF-8" standalone="yes"?>
<!DOCTYPE svg PUBLIC "-//W3C//DTD SVG 1.1//EN" "http://www.w3.org/Graphics/SVG/1.1/DTD/svg11.dtd">

<svg width="500" height="500" viewBox="0 0 500 500" xmlns="http://www.w3.org/2000/svg" xmlns:xlink="http://www.w3.org/1999/xlink" version="1.1" baseProfile="full">
    <g transform="scale(1,-1) translate(0,-500)">
        <path d="M 4.000000 338.000000 L 338.000000 338.000000 L 338.000000 4.000000 L 4.000000 4.000000 Z" transform="scale(0.500000,0.500000) translate(329.000000,329.000000)" fill="#ea9a00" opacity="1.000000"></path>
        <path d="M 279.271698 19.810794 L 274.745213 16.321310 L 270.047315 13.297096 L 265.178001 10.738151 L 260.137264 8.644472 L 254.925099 7.016059 L 249.541502 5.852909 L 243.986467 5.155020 L 238.259990 4.922391 L 231.696797 5.167265 L 225.329545 5.901887 L 219.158209 7.126262 L 213.182766 8.840391 L 209.248109 10.162719 L 205.280818 11.778890 L 201.280875 13.688913 L 197.248261 15.892794 L 191.958535 18.635397 L 190.440195 19.321045 L 189.962654 19.492456 L 189.672865 19.549593 L 189.615210 19.533268 L 189.507556 19.484294 L 189.142253 19.288395 L 187.811660 18.504798 L 182.750501 15.370392 L 176.905671 11.974789 L 172.693492 10.146391 L 163.469094 7.632335 L 155.126354 5.836586 L 147.665242 4.759141 L 141.085730 4.399994 L 141.079608 4.399994 L 141.061241 4.399994 L 140.987773 4.399994 L 140.693901 4.399994 L 139.518397 4.399994 L 136.906186 4.399994 L 133.298066 4.579567 L 129.526695 5.118290 L 125.592059 6.016163 L 121.494146 7.273190 L 118.065617 8.824064 L 113.265693 11.387081 L 99.551568 19.549593 L 98.996473 19.402669 L 98.114855 18.961896 L 95.372034 17.198794 L 92.563900 15.239791 L 90.931273 14.064392 L 86.200706 11.799289 L 81.413011 9.836204 L 76.568183 8.175135 L 71.666217 6.816081 L 66.707108 5.759041 L 61.690853 5.004014 L 56.617445 4.550999 L 51.486882 4.399994 L 45.784896 4.628542 L 40.042111 5.314187 L 34.258521 6.456931 L 28.434120 8.056775 L 22.568904 10.113722 L 16.662865 12.627773 L 10.716000 15.598930 L 4.728302 19.027194 L 4.728302 20.071993 L 5.511965 31.303594 L 11.046606 27.263140 L 16.679188 23.761420 L 22.409717 20.798431 L 28.238199 18.374171 L 34.164640 16.488640 L 40.189044 15.141834 L 46.311417 14.333752 L 52.531765 14.064392 L 56.956207 14.211316 L 61.347980 14.652089 L 65.707100 15.386715 L 70.033583 16.415193 L 74.229445 18.031365 L 80.547711 21.051479 L 99.551568 31.303594 L 99.739321 31.254620 L 100.041358 31.107696 L 100.988282 30.519998 L 104.253546 28.169194 L 111.045301 22.945194 L 117.379912 19.484289 L 122.277807 17.459993 L 127.469587 15.974413 L 132.857263 14.913288 L 138.440856 14.276615 L 144.220386 14.064392 L 149.493796 14.341915 L 154.865145 15.174487 L 160.334452 16.562112 L 165.901737 18.504794 L 173.542455 22.030990 L 181.836231 26.863194 L 187.452489 30.193500 L 188.987157 31.026071 L 189.436130 31.234214 L 189.672865 31.303594 L 189.681283 31.298238 L 189.706537 31.282168 L 189.807555 31.217889 L 190.211627 30.960772 L 191.827921 29.932301 L 198.293150 25.818393 L 205.999180 21.247390 L 211.876660 18.504794 L 218.194950 16.562112 L 224.088738 15.174487 L 229.558045 14.341915 L 234.602890 14.064392 L 240.215080 14.325589 L 245.819091 15.109184 L 251.414929 16.415177 L 257.002598 18.243572 L 262.582105 20.594368 L 268.153454 23.467570 L 273.716650 26.863178 L 279.271698 30.781195 Z M 100.335229 64.998397 L 37.380942 64.998397 L 100.335229 261.682006 Z M 273.263624 54.811596 L 245.051735 19.810794 L 239.696694 19.418993 L 236.725309 19.125143 L 235.851857 19.051681 L 235.386561 19.027194 L 228.235625 19.321042 L 222.978558 20.202593 L 210.570555 24.251194 L 203.648193 27.777389 L 194.374833 33.131994 L 193.558522 33.784993 L 192.154458 35.221595 L 190.685089 36.592897 L 189.672865 37.049994 L 189.440212 36.976532 L 189.003483 36.756146 L 187.517794 35.874600 L 182.097448 32.348393 L 175.175076 28.234489 L 171.126159 25.818393 L 163.567057 22.618683 L 156.301856 20.333185 L 149.330531 18.961891 L 142.653053 18.504794 L 142.634686 18.504794 L 142.579585 18.504794 L 142.359181 18.504794 L 141.477556 18.504794 L 139.257180 18.504794 L 134.489893 18.700692 L 131.159329 19.288392 L 127.306321 20.839262 L 120.710508 24.185875 L 99.290350 36.266395 L 99.053618 36.192933 L 98.604647 35.972547 L 97.069979 35.091001 L 91.453717 31.564795 L 82.833418 26.210190 L 74.735561 22.161593 L 69.037664 19.990361 L 63.437747 18.439487 L 57.935787 17.508966 L 52.531765 17.198794 L 52.481767 17.212058 L 52.397075 17.251850 L 52.123611 17.411017 L 51.160362 18.047689 L 47.568565 20.594392 L 42.997188 23.745122 L 38.425827 27.450889 L 33.854465 31.711708 L 29.283087 36.527595 L 24.352523 42.241358 L 20.793387 47.367401 L 19.528102 49.710033 L 18.605669 51.905741 L 18.026089 53.954528 L 17.789358 55.856396 L 108.433090 55.856396 L 108.433090 265.600006 L 114.441174 265.600006 L 114.441174 54.811596 Z M 259.680114 64.998397 L 123.061469 64.998397 L 123.061469 262.204418 Z" transform="scale(0.500000,0.500000) translate(358.000000,365.000000)" fill="#f6ffff" opacity="1.000000"></path>
    </g>
</svg>