<?xml version="1.0" encoding="UTF-8" standalone="yes"?>
<!DOCTYPE svg PUBLIC "-//W3C//DTD SVG 1.1//EN" "http://www.w3.org/Graphics/SVG/1.1/DTD/svg11.dtd">

<svg width="500" height="500" viewBox="0 0 500 500" xmlns="http://www.w3.org/2000/svg" xmlns:xlink="http://www.w3.org/1999/xlink" version="1.1" baseProfile="full">
    <g transform="scale(1,-1) translate(0,-500)">
        <path d="M 4.000000 338.000000 L 338.000000 338.000000 L 338.000000 4.000000 L 4.000000 4.000000 Z" transform="scale(0.500000,0.500000) translate(329.000000,329.000000)" fill="#fea600" opacity="1.000000"></path>
        <path d="M 73.256622 91.057588 L 73.037335 93.415143 L 72.379472 95.620589 L 71.283030 97.673934 L 69.748004 99.575187 L 67.875614 101.172243 L 65.767073 102.312993 L 63.422375 102.997440 L 60.841509 103.225588 L 57.788327 102.735492 L 54.836367 101.265197 L 51.985618 98.814698 L 49.236071 95.383987 L 46.570865 98.814698 L 43.703249 101.265197 L 40.633212 102.735492 L 37.360742 103.225588 L 34.889521 102.980540 L 32.603861 102.245392 L 30.503754 101.020141 L 28.589192 99.304786 L 26.995127 97.302133 L 25.856513 95.214988 L 25.173347 93.043342 L 24.945625 90.787187 L 25.164913 88.328231 L 25.822776 86.088985 L 26.919219 84.069439 L 28.454245 82.269588 L 30.326636 80.790833 L 32.435178 79.734583 L 34.779877 79.100835 L 37.360742 78.889587 L 40.734423 79.328983 L 43.838197 80.647178 L 46.672076 82.844176 L 49.236071 85.919986 L 51.985618 82.844176 L 54.836367 80.647178 L 57.788327 79.328983 L 60.841509 78.889587 L 63.751313 79.079710 L 66.273139 79.650081 L 68.406987 80.600701 L 70.152859 81.931572 L 71.510758 83.642694 L 72.480683 85.734070 L 73.062638 88.205701 L 73.256622 91.057588 Z M 255.165071 52.660787 L 255.165071 60.231987 L 26.834883 60.231987 L 26.834883 52.660787 Z M 133.173059 139.999990 L 133.173059 231.124793 L 119.678366 231.124793 L 30.613396 225.987189 L 18.468173 139.999990 Z M 257.054340 91.057588 L 256.835054 93.415143 L 256.177191 95.620589 L 255.080746 97.673934 L 253.545712 99.575187 L 251.656456 101.172243 L 249.497309 102.312993 L 247.068266 102.997440 L 244.369317 103.225588 L 241.417358 102.735492 L 238.499141 101.265197 L 235.614656 98.814698 L 232.763894 95.383987 L 230.520395 98.814698 L 229.234183 100.162474 L 227.838329 101.265197 L 226.332830 102.122870 L 224.717684 102.735492 L 222.992892 103.103064 L 221.158450 103.225588 L 218.577590 102.980540 L 216.232893 102.245392 L 214.124353 101.020141 L 212.251965 99.304786 L 210.716932 97.302133 L 209.620486 95.214988 L 208.962623 93.043342 L 208.743337 90.787187 L 208.962623 88.328231 L 209.620486 86.088985 L 210.716932 84.069439 L 212.251965 82.269588 L 214.124353 80.790833 L 216.232893 79.734583 L 218.577590 79.100835 L 221.158450 78.889587 L 224.717684 79.328983 L 227.838329 80.647178 L 230.520395 82.844176 L 232.763894 85.919986 L 235.614656 82.844176 L 238.499141 80.647178 L 241.417358 79.328983 L 244.369317 78.889587 L 247.342383 79.079710 L 249.919035 79.650081 L 252.099274 80.600701 L 253.883102 81.931572 L 255.270522 83.642694 L 256.261533 85.734070 L 256.856139 88.205701 L 257.054340 91.057588 Z M 263.531797 139.999990 L 251.386574 225.987189 L 148.826900 231.124793 L 148.826900 139.999990 Z M 209.822916 238.425585 L 209.822916 266.547190 L 72.177048 266.547190 L 72.177048 238.425585 Z M 277.026489 122.964787 L 273.517861 65.910387 L 273.517861 64.828787 L 273.787751 63.476787 L 276.216805 59.691180 L 276.824068 58.812384 L 276.975884 58.626486 L 277.013838 58.596911 L 277.026489 58.609587 L 277.026489 32.110387 L 255.434981 32.110387 L 255.434981 4.799988 L 211.982055 4.799988 L 211.982055 32.110387 L 70.017899 32.110387 L 70.017899 4.799988 L 26.834883 4.799988 L 26.834883 31.839986 L 4.973480 31.839986 L 4.973480 58.339187 L 5.175899 58.254682 L 5.783158 59.082777 L 8.212207 63.476787 L 8.212207 64.693586 L 8.212207 65.910387 L 4.973480 122.964787 L 4.977829 123.027699 L 4.990876 123.148837 L 5.043062 123.565789 L 5.251806 125.098397 L 6.086784 130.958433 L 9.426707 153.857841 L 22.786474 244.374398 L 23.528683 247.991006 L 24.540783 251.404806 L 25.822774 254.615802 L 27.374660 257.623994 L 29.196440 260.429387 L 31.288117 263.031983 L 33.649693 265.431784 L 36.281168 267.628794 L 38.845157 269.251190 L 42.218832 270.873586 L 47.093801 272.766393 L 51.732593 274.118390 L 56.135227 274.929585 L 60.301719 275.199982 L 221.698250 275.199982 L 226.691290 274.878886 L 231.684314 273.915594 L 236.677339 272.310100 L 241.670378 270.062398 L 244.807909 268.359714 L 247.608064 266.496487 L 250.070845 264.472715 L 252.196256 262.288395 L 253.984297 259.943525 L 255.434972 257.438102 L 256.548282 254.772123 L 257.324230 251.945585 L 260.276201 236.921478 L 263.464317 218.618824 L 266.888589 197.037551 L 270.549033 172.177584 L 275.407130 136.619932 L 276.621650 127.054569 L 276.925280 124.325233 L 277.001187 123.473899 L 277.026489 122.964787 Z" transform="scale(0.500000,0.500000) translate(359.000000,360.000000)" fill="#ffffff" opacity="1.000000"></path>
    </g>
</svg>